<?xml version="1.0" encoding="UTF-8" standalone="no"?>
<!-- Created with Inkscape (http://www.inkscape.org/) -->

<svg
   xmlns:dc="http://purl.org/dc/elements/1.1/"
   xmlns:cc="http://creativecommons.org/ns#"
   xmlns:rdf="http://www.w3.org/1999/02/22-rdf-syntax-ns#"
   xmlns:svg="http://www.w3.org/2000/svg"
   xmlns="http://www.w3.org/2000/svg"
   xmlns:sodipodi="http://sodipodi.sourceforge.net/DTD/sodipodi-0.dtd"
   xmlns:inkscape="http://www.inkscape.org/namespaces/inkscape"
   width="1788"
   height="2940"
   id="svg2"
   version="1.1"
   inkscape:version="0.48.2 r9819"
   sodipodi:docname="big0.svg">
  <defs
     id="defs4" />
  <sodipodi:namedview
     id="base"
     pagecolor="#ffffff"
     bordercolor="#666666"
     borderopacity="1.0"
     inkscape:pageopacity="0.0"
     inkscape:pageshadow="2"
     inkscape:zoom="0.7"
     inkscape:cx="892.68054"
     inkscape:cy="2637.8283"
     inkscape:document-units="px"
     inkscape:current-layer="layer1"
     showgrid="false"
     fit-margin-top="0"
     fit-margin-left="0"
     fit-margin-right="0"
     fit-margin-bottom="0"
     inkscape:window-width="1920"
     inkscape:window-height="1137"
     inkscape:window-x="-4"
     inkscape:window-y="-4"
     inkscape:window-maximized="1" />
  <metadata
     id="metadata7">
    <rdf:RDF>
      <cc:Work
         rdf:about="">
        <dc:format>image/svg+xml</dc:format>
        <dc:type
           rdf:resource="http://purl.org/dc/dcmitype/StillImage" />
        <dc:title />
      </cc:Work>
    </rdf:RDF>
  </metadata>
  <g
     inkscape:label="Layer 1"
     inkscape:groupmode="layer"
     id="layer1"
     transform="translate(990.97467,950.99835)"
     style="display:inline">
    <path
       style="fill:#000000;opacity:0.0781893"
       d="m 335.23683,1777.2517 c -63.285,-103.7251 -111.4205,-190.2757 -169.2098,-304.25 -38.5913,-76.1113 -38.9769,-76.9331 -75.8875,-161.7364 l -37.099,-85.2365 -31.1132,-90.2635 C 0.6569,1074.0569 -19.29162,1018.6682 -41.1304,960.68045 c -29.84828,-79.2552 -33.97112,-91.0342 -62.8275,-179.5 -18.12975,-55.5809 -42.46185,-133.1233 -58.92219,-187.7753 -26.5796,-88.2502 -29.55137,-97.3712 -57.08754,-175.212 l -29.04833,-82.1155 -37.30219,-64.788 c -50.76333,-88.1679 -109.31392,-186.4878 -151.13343,-253.788 -23.59399,-37.96981 -47.91492,-79.02069 -75.53841,-127.5 -38.35232,-67.30841 -43.02649,-76.07264 -79.732,-149.5 l -38.99133,-78 -31.52925,-77.5 c -17.34109,-42.625 -44.6347,-110.68687 -60.65246,-151.24861 -28.63139,-72.50322 -29.44368,-74.76082 -48.10142,-133.68941 -10.43802,-32.96744 -18.97822,-60.40949 -18.97822,-60.98234 0,-0.57284 1.125,-1.32389 2.5,-1.669 1.54139,-0.38686 2.5,-1.33792 2.5,-2.48031 0,-1.36634 1.35435,-2.25505 5.15801,-3.38461 68.39237,-20.31035 227.20946,-65.56652 227.82276,-64.91987 2.84782,3.00265 65.22572,147.50926 83.47212,193.37415 11.70613,29.425 37.59348,93.775 57.52745,143 34.67854,85.63532 37.77517,92.78174 71.71315,165.5 29.17232,62.50698 40.57906,85.67592 64.24894,130.5 25.02489,47.3901 33.08529,61.54467 61.78595,108.5 18.15363,29.7 45.1526,74.7 59.99771,100 25.80384,43.9766 27.89692,47.9402 47.58307,90.1074 11.32558,24.259 34.16761,71.734 50.76007,105.5 16.59246,33.7659 42.91329,87.8198 58.49073,120.1197 l 28.32264,58.7271 22.4848,60.2729 c 12.3666,33.1501 31.2839,84.9317 42.0385,115.0702 l 19.5537,54.7972 14.0293,59.0715 14.0293,59.0714 25.9385,63.828 25.9384,63.8281 22.0419,71.1517 22.0418,71.15165 32.932,74.1516 c 18.1126,40.7833 45.3951,103.8516 60.6277,140.1516 24.634,58.7037 31.8773,74.7042 65.5203,144.7354 29.5554,61.5224 45.9003,93.9873 74.7645,148.5 37.818,71.4229 111.5248,217.4081 110.98,219.8091 -0.1668,0.7351 -13.3489,9.7606 -29.2936,20.0566 -15.9447,10.2959 -40.6947,27.1075 -55,37.359 -30.7816,22.0585 -28.2977,20.4607 -29.8298,19.1891 -0.8975,-0.7448 -12.3603,6.1626 -42.174,25.4139 -22.5178,14.5402 -41.6853,26.4368 -42.5944,26.4368 -1.1165,0 -17.2458,-25.5569 -49.7,-78.75 z m 91.7884,49.1532 c 30.2947,-19.5795 41.6983,-26.4539 43.2223,-26.0553 1.5426,0.4034 7.8313,-3.5707 24.674,-15.5923 12.4321,-8.8735 22.8288,-16.4346 23.1038,-16.8024 0.275,-0.3679 10.625,-7.1926 23,-15.1661 12.375,-7.9735 26.4369,-17.0398 31.2487,-20.1472 l 8.7487,-5.65 -39.8906,-79.745 c -21.9398,-43.8597 -55.0278,-108.3199 -73.5288,-143.2449 -24.7743,-46.7674 -43.4075,-83.79 -70.7125,-140.5 -33.4679,-69.5096 -40.0235,-84.004 -67.3905,-149 -16.6738,-39.6 -44.3422,-103.5 -61.4853,-142 l -31.1692,-70 -22.3463,-72.00005 -22.3463,-72 -25.6551,-63 -25.6551,-63 -14.3381,-60 -14.338,-60 -19.6523,-55 c -10.8088,-30.25 -29.7257,-82 -42.0377,-115 l -22.3853,-60 -31.90675,-66 c -17.54868,-36.3 -42.13989,-86.7 -54.64713,-112 -12.50723,-25.3 -33.84637,-69.625 -47.42029,-98.5 -24.22326,-51.5287 -25.18023,-53.351 -51.72607,-98.5 -14.87543,-25.3 -41.37089,-69.4 -58.87881,-98 -27.32149,-44.6309 -35.92118,-59.72338 -60.68366,-106.5 -23.62419,-44.62637 -35.21074,-68.08757 -63.95491,-129.5 -37.86794,-80.90552 -48.67947,-106.62504 -124.00696,-295 -18.58338,-46.47231 -38.27997,-93.35964 -58.60164,-139.5 -16.83549,-38.225 -30.7014,-69.63714 -30.81313,-69.80476 -0.16959,-0.25443 -215.24376,61.75628 -225.17695,64.92357 -2.09144,0.66688 -3.25,1.68296 -3.25,2.85033 0,1.11174 -0.98987,2.06249 -2.55681,2.45576 -2.10185,0.52753 -2.42938,1.03617 -1.84066,2.85841 0.39389,1.21918 8.91135,28.09169 18.9277,59.71669 17.78848,56.16426 18.89118,59.21904 47.46842,131.5 16.09129,40.7 43.57441,109.16373 61.0736,152.14163 l 31.8167,78.14162 37.16129,74.35838 c 34.76374,69.56094 39.84378,79.06816 78.73884,147.35837 28.50827,50.05354 52.79267,91.07426 77.25644,130.5 41.89356,67.5155 103.32304,170.7052 152.92741,256.8884 l 35.33325,61.3885 28.88903,81.6115 c 27.36327,77.3013 30.36903,86.5234 56.9116,174.6116 16.43475,54.5429 40.96984,132.6977 59.33265,189 29.38735,90.1047 33.27647,101.2198 63.3309,181 21.85525,58.01535 41.87356,113.57215 63.05624,175.00005 l 31.0355,90 37.5152,86 c 36.5456,83.777 38.4505,87.8482 73.695,157.5 26.7284,52.8219 47.4272,91.8761 79.2355,149.5 37.1076,67.2243 49.5413,88.6376 90.0009,155 44.6967,73.312 48.5292,79.5 49.2376,79.5 0.1658,0 18.8199,-11.9685 41.4536,-26.5968 z m -88.1293,-58.2034 c -61.9037,-101.8243 -113.4857,-194.8606 -168.6569,-304.1998 -35.9928,-71.3309 -38.1538,-75.9495 -73.2255,-156.5 l -36.1382,-83 -30.8298,-89.5 c -16.9564,-49.225 -34.47263,-99.21 -38.92499,-111.0778 -4.45237,-11.8677 -8.08825,-22.4427 -8.07975,-23.5 0.0127,-1.58115 7.91858,-5.27565 44.55224,-20.82005 25.5202,-10.8287 44.8886,-18.5144 45.3608,-18 0.9905,1.0791 15.0715,38.54905 15.0715,40.10565 0,0.5993 -18.7875,8.5969 -41.75,17.7723 -22.9625,9.1754 -42.1322,17.0507 -42.59934,17.5006 -0.46713,0.4499 -0.56454,1.7153 -0.21646,2.812 0.58991,1.8586 2.56474,1.2206 29.0947,-9.3994 15.6541,-6.2663 29.2579,-11.3933 30.2309,-11.3933 1.3768,0 5.5208,8.7682 18.6961,39.5594 9.3099,21.7576 17.295,39.7867 17.7446,40.0645 0.4496,0.2779 1.6622,0.2371 2.6947,-0.091 1.6838,-0.5345 0.1364,-4.6561 -15.0089,-39.977 -9.2875,-21.6596 -16.8863,-40.2464 -16.8863,-41.3039 0,-1.5091 2.2051,-2.7922 10.25,-5.964 7.3513,-2.8985 10.3446,-4.5712 10.5844,-5.9149 0.1839,-1.0304 0.9052,-2.3247 1.6029,-2.8762 0.9909,-0.7832 -0.4507,-5.57455 -6.5843,-21.88355 -4.3192,-11.4845 -7.853,-21.6525 -7.853,-22.5957 0,-1.308 4.7754,-3.5428 20.1215,-9.4165 11.0669,-4.2358 20.8297,-7.5651 21.6952,-7.3984 1.0234,0.1971 4.5843,7.8192 10.1833,21.7968 6.7013,16.7297 9.0408,21.5685 10.5548,21.8312 1.0699,0.1856 2.3952,0.9039 2.9452,1.5962 0.7722,0.9719 8.9741,-2.1123 36,-13.5372 19.25,-8.1378 35.7058,-14.8171 36.5684,-14.8431 1.1806,-0.035 3.3684,5.7007 8.8499,23.2029 4.0048,12.7875 7.3491,24.29865 7.4316,25.58025 0.1407,2.1836 -1.9572,3.0702 -33.3499,14.0955 -20.9187,7.3467 -33.5934,12.2928 -33.7487,13.1698 -0.7485,4.226 1.4399,3.7183 35.1853,-8.1614 18.645,-6.5637 34.3868,-11.9291 34.9817,-11.923 1.6383,0.017 59.8439,131.8857 90.9215,205.9889 24.6613,58.8037 31.3626,73.5857 65.5493,144.5904 28.5369,59.2706 46.6312,95.2313 72.2046,143.5 29.2522,55.2125 109.9063,214.2643 109.9063,216.7379 0,1.3602 -58.0355,38.3721 -59.367,37.8611 -0.6717,-0.2577 -13.6945,-22.0058 -28.9396,-48.329 -27.167,-46.9085 -28.3997,-49.2825 -61.9765,-119.3604 -38.0564,-79.4273 -76.1055,-152.2121 -121.5424,-232.5 -14.0066,-24.75 -26.2731,-46.575 -27.2589,-48.5 -4.175,-8.1524 -43.7865,-97.9336 -45.2231,-102.5 -0.8652,-2.75 -11.3083,-34.6159 -23.2069,-70.8132 l -21.6338,-65.8132 -2.9259,0.6427 c -2.2896,0.5029 -2.9259,0.2923 -2.9259,-0.9682 0,-0.886 0.6325,-1.8536 1.4055,-2.1502 1.0918,-0.419 -0.05,-4.0393 -5.1144,-16.2186 -3.586,-8.6236 -6.5435,-16.1989 -6.5722,-16.834 -0.029,-0.635 -0.742,-0.8899 -1.585,-0.5664 -1.2038,0.4619 -1.2428,0.6848 -0.182,1.0384 0.9617,0.3206 0.76,0.7719 -0.6998,1.5665 -2.0005,1.0888 -1.9074,1.4592 3.798,15.1162 6.3284,15.1482 6.5767,16.035 4.6999,16.7867 -19.4839,7.8044 -140.5963,57.0971 -141.4213,57.5584 -0.8951,0.5005 -0.8951,1.1571 0,2.7844 1.1468,2.085 2.0917,1.7557 45.1713,-15.7401 24.2,-9.8283 44.9274,-17.8741 46.0609,-17.8795 1.8268,-0.01 4.1501,6.0392 20.4523,53.2401 l 18.3914,53.25 27.1543,55.5 c 53.5761,109.503 58.2708,118.4593 86.7007,165.4005 24.3974,40.283 27.5212,46.0075 47.8013,87.5995 11.934,24.475 31.4016,66.1 43.2613,92.5 24.7792,55.159 54.3719,112.5789 81.509,158.1554 8.8928,14.9355 16.1611,27.7605 16.1517,28.5 -0.021,1.686 -76.1783,50.8629 -78.6619,50.7944 -1.3212,-0.036 -14.6178,-21.0995 -48.4504,-76.75 z m 87.4254,49.3163 c 20.1883,-13.0371 36.547,-23.9992 36.3528,-24.36 -0.1943,-0.3609 -7.786,-13.2561 -16.8704,-28.6561 -27.9762,-47.4255 -55.5198,-101.0847 -81.1023,-158 -12.3608,-27.5 -31.5788,-68.675 -42.7068,-91.5 -18.5406,-38.0297 -22.3977,-45.0792 -46.1245,-84.3012 -23.2654,-38.4594 -28.3347,-47.6858 -49.9714,-90.9519 -13.2436,-26.4828 -33.4009,-67.2972 -44.7939,-90.6987 l -20.7145,-42.5482 -17.8579,-51.8208 c -16.5737,-48.0942 -18.007,-51.7819 -19.9325,-51.2807 -6.3074,1.6418 -87.5546,35.2899 -87.5637,36.264 -0.01,0.6394 6.2662,19.4156 13.9381,41.7249 13.3567,38.8396 15.5058,44.1415 50.6034,124.8374 36.3594,83.5971 36.9624,84.8827 74.9308,159.7752 56.6312,111.7048 106.9299,202.2795 167.3095,301.2802 25.0842,41.1291 46.1003,74.5911 46.7025,74.36 0.6022,-0.2311 17.6125,-11.0869 37.8008,-24.1241 z m 109.704,-70.8625 c 10.175,-6.5748 22.2168,-14.3542 26.7596,-17.2876 l 8.2595,-5.3334 -35.128,-70.2663 c -19.3204,-38.6465 -51.687,-101.5413 -71.9257,-139.7663 -28.6122,-54.0399 -45.357,-87.2958 -75.2754,-149.5 -34.8187,-72.3924 -41.1902,-86.4665 -67.0018,-148 -22.0672,-52.6073 -85.4287,-197.5739 -87.074,-199.2191 -0.4252,-0.4252 -60.9446,20.8632 -62.0104,21.813 -1.0897,0.9709 10.9253,30.9038 13.081,32.5887 0.8321,0.6504 12.208,33.7254 25.2797,73.5 l 23.7668,72.3174 21.2356,47.5 c 20.6466,46.1824 21.9508,48.7621 47.0197,93 46.097,81.345 85.2529,156.2008 123.0978,235.3304 33.3107,69.6491 34.3381,71.6284 61.6076,118.6781 15.9995,27.605 28.171,47.5835 28.7699,47.2234 0.571,-0.3433 9.3631,-6.0035 19.5381,-12.5784 z m -471.602,-631.6388 c 17.5439,-7.1376 32.0014,-13.0984 32.1278,-13.2461 0.2486,-0.2906 -33.3877,-78.9639 -34.0389,-79.6152 -0.2168,-0.2168 -13.5101,4.8527 -29.5406,11.2656 -21.0649,8.4267 -29.4929,11.3722 -30.39576,10.6228 -0.68709,-0.5702 1.34522,6.4996 4.51623,15.7107 3.17103,9.2111 9.73873,28.3349 14.59483,42.4974 4.8561,14.1625 9.2814,25.7482 9.8339,25.7461 0.5525,0 15.3586,-5.8437 32.9025,-12.9813 z m 78.102,-31.6929 c 14.3,-5.7939 26.9948,-10.9188 28.2106,-11.3885 2.1888,-0.8455 2.1508,-0.9996 -3.842,-15.5899 -5.1147,-12.4521 -5.8275,-14.9004 -4.5994,-15.7984 1.0671,-0.7803 1.213,-1.7124 0.5492,-3.5072 -2.124,-5.7415 -2.507,-5.5328 33.1816,-18.0816 22.4242,-7.8848 33.4492,-12.2218 33.3462,-13.1178 -0.159,-1.3839 -13.3915,-44.13435 -13.8054,-44.60125 -0.128,-0.1445 -16.3669,6.5324 -36.0862,14.8376 -30.5157,12.8521 -36.0156,14.8783 -36.9432,13.6098 -0.5994,-0.8197 -2.133,-1.6466 -3.4081,-1.8375 -2.0124,-0.3014 -3.4468,-3.1844 -10.8695,-21.8472 -4.7031,-11.825 -8.7013,-21.6842 -8.885,-21.9092 -0.5182,-0.6351 -38.3488,14.0739 -38.3488,14.9105 0,0.4074 3.6179,10.3542 8.0397,22.1041 6.762,17.9685 7.8104,21.53095 6.5971,22.41815 -0.7933,0.5801 -1.5987,2.1069 -1.7896,3.3929 -0.2888,1.945 -2.0706,3.017 -10.5972,6.3756 -5.6375,2.2207 -10.25,4.3747 -10.25,4.7869 0,0.412 7.0113,17.1004 15.5807,37.0851 8.5694,19.9848 16.1942,37.7933 16.9441,39.5743 l 1.3635,3.2385 4.8058,-2.0601 c 2.6433,-1.1331 16.5059,-6.8007 30.8059,-12.5948 z m -100.2521,-65.2212 c 22.8987,-9.1572 41.8695,-16.8849 42.1572,-17.1726 0.8327,-0.8327 -12.796,-36.23005 -13.9051,-36.11525 -2.5158,0.2603 -84.5,35.73385 -84.5,36.56215 0,0.5147 3.0166,9.0089 6.70355,18.8756 4.23453,11.3322 6.92577,17.3061 7.30689,16.2196 0.40848,-1.1644 14.04966,-7.0971 42.23746,-18.3695 z m 410.132,742.1267 c -27.6116,-46.8228 -54.5471,-99.3228 -79.8971,-155.7274 -11.8649,-26.4 -31.104,-67.575 -42.7534,-91.5 -19.806,-40.6765 -22.9201,-46.3754 -47.9763,-87.8001 -29.0915,-48.096 -30.329,-50.4473 -82.4711,-156.6999 l -30.4257,-62 -18.4281,-53.3217 c -10.1355,-29.3269 -18.4282,-54.1366 -18.4282,-55.1327 0,-1.4233 4.8028,-3.7635 22.4278,-10.9283 12.3353,-5.0146 23.2632,-9.1173 24.2843,-9.1173 1.5722,0 5.3601,10.6803 24.7378,69.75 l 22.8813,69.75 21.5393,48.5 c 21.0313,47.356 22.1265,49.5379 46.4307,92.5 46.333,81.9021 89.0172,163.4724 125.8493,240.5 32.6382,68.2569 33.73,70.3578 61.0411,117.4608 15.2946,26.3784 27.8084,48.6851 27.8084,49.5707 0,1.6053 -35.0196,24.9919 -37.3546,24.9459 -0.63,-0.012 -9.2994,-13.8499 -19.2655,-30.75 z m 43.3701,12.4448 c 5.6375,-3.6524 10.25,-6.8646 10.25,-7.1383 0,-0.2736 -12.2207,-21.5432 -27.1571,-47.2657 -26.6392,-45.8762 -27.8005,-48.1128 -60.8884,-117.2682 -37.6164,-78.6202 -77.2676,-154.4186 -124.5011,-238 -25.5492,-45.2101 -26.8599,-47.8038 -47.2501,-93.5 l -20.9719,-47 -23.228,-70.5 c -12.7754,-38.775 -23.409,-70.694 -23.6301,-70.9311 -0.2212,-0.2373 -10.2031,3.5322 -22.182,8.3764 l -21.7797,8.8075 18.2032,52.7007 18.2031,52.7008 19.7169,40.4228 c 10.8443,22.2326 30.6707,62.3294 44.0586,89.1039 22.0007,43.9994 26.8089,52.7508 49.9978,91 23.6272,38.9724 27.2757,45.6404 46.1358,84.319 11.2638,23.1 30.8271,64.95 43.474,93 26.4908,58.7552 53.4294,111.2187 80.9687,157.6885 l 17.0016,28.6886 6.6644,-4.2821 c 3.6653,-2.3552 11.2768,-7.2705 16.9143,-10.9228 z M -43.7425,931.25165 c -19.73461,-52.5336 -27.74161,-75.7051 -53.64731,-155.25 -17.18477,-52.7668 -42.6558,-134.0154 -58.46683,-186.5 -26.36687,-87.5247 -29.69731,-97.7572 -56.56869,-173.8026 -15.7038,-44.4414 -29.27116,-82.1926 -30.14968,-83.8914 -0.87851,-1.6989 -19.10283,-33.4713 -40.49848,-70.6053 -21.39565,-37.1341 -38.89189,-68.008 -38.88054,-68.6086 0.0286,-1.5145 75.48177,-41.8386 77.51498,-41.426 0.94933,0.1926 23.25924,35.6642 52.7274,83.8339 l 51.08177,83.5 2.13021,24.5 2.13021,24.5 23.12908,70 23.12907,70 27.61441,64 27.6144,64 24.33026,83 c 24.26247,82.7686 24.40727,83.2146 51.95507,159.9632 21.7672,60.6439 27.3594,77.2043 26.3736,78.1006 -1.8678,1.6981 -84.2988,36.4362 -86.46043,36.4362 -1.54508,0 -5.80693,-10.5022 -25.0585,-61.75 z m 68.97883,40.7746 40.6145,-17.2682 -3.4911,-9.6282 c -46.251,-127.5582 -50.5921,-140.529 -75.35304,-225.1504 l -23.90142,-81.684 -27.91611,-64.8969 -27.91611,-64.8969 -23.19537,-70.3392 -23.19538,-70.3391 -2.03183,-23.9527 -2.03184,-23.9527 -50.64665,-82.9192 c -27.85566,-45.6056 -50.97303,-82.9367 -51.37193,-82.9582 -0.39891,-0.021 -17.15337,8.8085 -37.23214,19.622 l -36.50685,19.6609 1.87147,3.0891 c 1.02931,1.699 18.96879,32.7891 39.86551,69.0891 l 37.99405,66 29.00378,82.0606 c 27.38872,77.4911 30.54503,87.1802 56.68173,174 15.81409,52.5306 40.93835,132.6601 58.61401,186.9394 26.34477,80.9008 34.30291,103.9519 53.62173,155.3178 18.32027,48.7108 22.99574,60.2367 24.29708,59.8964 0.88628,-0.2318 19.88794,-8.1921 42.22591,-17.6896 z m 116.9143,7.8374 c -0.5006,-1.2991 -4.1778,-10.462 -8.1715,-20.362 -3.9937,-9.9 -7.3751,-19.575 -7.5142,-21.5 -0.1391,-1.925 -3.8778,-17.9339 -8.3083,-35.5752 -6.9734,-27.7667 -9.2795,-35.2218 -17.1681,-55.5 -9.4385,-24.2627 -31.0933,-86.7259 -86.4706,-249.4248 -17.78422,-52.25 -48.51551,-139.8432 -68.29179,-194.6515 l -35.95687,-99.6515 -53.21161,-86.8485 c -29.26639,-47.7667 -53.53296,-87.1877 -53.92572,-87.6022 -0.39276,-0.4146 -1.54894,-0.1433 -2.56929,0.6028 -1.73365,1.2676 1.63949,7.0497 51.48513,88.2537 l 53.34033,86.8972 36.19479,100.5 c 19.90714,55.275 51.7469,146.175 70.75503,202 55.6769,163.5176 72.834,212.9561 83.1159,239.5 8.353,21.5645 10.7067,29.0848 17.1276,54.7251 4.0942,16.3489 7.4439,30.5882 7.4439,31.643 0,1.0549 -0.5625,2.137 -1.25,2.4047 -23.1393,9.0106 -43.6634,16.7272 -44.49,16.7272 -0.5896,0 -1.7367,-1.9125 -2.549,-4.25 -0.8124,-2.3375 -13.2068,-36.8918 -27.5432,-76.7874 -25.7861,-71.7583 -26.3238,-73.4179 -50.05521,-154.5 l -23.9891,-81.9626 -27.65073,-64 -27.65072,-64 -23.07424,-70 -23.07423,-70 -2.08679,-24.5 c -1.75846,-20.6454 -2.41436,-25.0507 -4.16889,-28 -1.14515,-1.925 -24.20765,-39.6345 -51.25,-83.7988 -27.04234,-44.1643 -49.16743,-81.0643 -49.16687,-82 0.001,-1.8068 0.34276,-2.0159 24.75563,-15.1486 l 15.25665,-8.2071 -2.92441,-4.1728 c -4.3833,-6.2543 -19.08889,-30.5638 -19.08889,-31.5553 0,-0.4751 15.6375,-11.1158 34.75,-23.6458 19.1125,-12.5301 35.285,-23.27465 35.93888,-23.87679 0.91593,-0.84346 0.8819,-1.50851 -0.14822,-2.89675 -1.23596,-1.66564 -4.08697,0.007 -37.68889,22.11024 -27.03995,17.7868 -36.27214,24.3511 -36.0409,25.6261 0.17098,0.9427 -0.21198,2.344 -0.85103,3.114 -0.92455,1.114 0.71284,4.4665 8.01531,16.411 5.04747,8.256 9.03044,15.7268 8.85103,16.6019 -0.37599,1.8339 -116.54076,64.7622 -118.30233,64.0862 -0.87974,-0.3376 -24.59022,-39.5133 -37.31116,-61.6475 -1.10634,-1.925 -6.55678,-11.0738 -12.11211,-20.3306 -5.55532,-9.2569 -10.10058,-17.2101 -10.10058,-17.6738 0,-1.2218 64.63901,-38.00008 66.73685,-37.972 1.19972,0.016 4.55928,4.746 10.51315,14.8014 4.8125,8.1278 8.75,15.2773 8.75,15.8879 0,0.6105 -12.7125,8.2073 -28.25,16.8818 -15.5375,8.6744 -30.34766,17.0041 -32.91148,18.5103 -2.56381,1.5063 -4.95009,2.4501 -5.30285,2.0973 -0.35276,-0.3527 -0.31001,0.2222 0.095,1.2776 0.46329,1.2073 0.89119,1.4545 1.15385,0.6665 0.2978,-0.8934 0.77376,-0.7652 1.6603,0.4473 1.12515,1.5387 3.21106,0.5968 22.02906,-9.947 11.43243,-6.4057 21.5184,-11.6467 22.41327,-11.6467 1.0498,0 8.17903,10.4942 20.09527,29.5802 10.15753,16.2692 18.75055,29.7548 19.09559,29.968 0.34504,0.2133 1.42134,-0.1928 2.39178,-0.9025 1.61629,-1.1818 0.20134,-3.789 -16.85268,-31.0522 -10.23941,-16.3692 -18.61079,-30.2867 -18.60307,-30.9278 0.008,-0.6411 3.61836,-3.1039 8.02365,-5.4729 4.78189,-2.5715 7.74064,-4.7425 7.34214,-5.3872 -0.36711,-0.594 0.36154,-1.8562 1.61923,-2.8049 l 2.28669,-1.7248 -9.64287,-16.0383 c -5.30359,-8.821 -9.64016,-16.64555 -9.63684,-17.38789 0.007,-1.52984 38.31124,-23.34971 40.98999,-23.34971 0.98907,0 5.49624,4.52929 10.44872,10.5 13.87351,16.7259 7.13866,18.0186 51.88756,-9.95965 21.14779,-13.22219 38.86251,-24.04035 39.36605,-24.04035 0.50354,0 8.63446,13.1625 18.06872,29.25 14.96724,25.5225 20.26508,35.8767 41.57233,81.25 13.43052,28.6 38.57743,80.8 55.88201,116 17.30457,35.2 41.85894,85.6 54.56525,112 22.50403,46.7568 23.58573,49.295 41.76373,98 10.2637,27.5 28.9873,78.8 41.608,114 l 22.9467,64 14.0006,59 14.0007,59 26.34,65 c 25.672,63.3515 26.6851,66.1183 39.9468,109.0944 7.4837,24.2519 13.6068,44.7291 13.6068,45.5047 0,0.906 -12.2472,6.5587 -34.25,15.8081 -18.8375,7.9188 -35.0295,14.6046 -35.9822,14.8573 -1.1457,0.3039 -2.0404,-0.3402 -2.6425,-1.9025 z m 36.8633,-15.3319 c 17.8687,-7.5206 32.6547,-13.8401 32.8579,-14.0432 0.2031,-0.2032 -5.7567,-20.1882 -13.2441,-44.4112 -13.261,-42.9017 -14.2862,-45.6976 -39.6036,-108.0022 l -25.9902,-63.9604 -14.1289,-59.3066 -14.1289,-59.3065 -21.2626,-59.5 c -11.6944,-32.725 -30.4901,-84.25 -41.7681,-114.5 l -20.5056,-55 -27.00033,-56 c -14.85021,-30.8 -40.59617,-83.675 -57.21324,-117.5 -16.61708,-33.825 -39.88883,-82.2 -51.71501,-107.5 -18.82283,-40.2681 -23.71859,-50.1196 -29.92279,-60.21244 -1.33936,-2.17884 -1.74358,-1.95976 -26.61157,14.42264 -13.88836,9.1492 -29.81299,19.6163 -35.38808,23.2601 l -10.13652,6.6251 7.63652,12.4835 c 4.20009,6.8659 8.5868,13.6885 9.74825,15.1614 1.16145,1.4728 2.71346,4.1588 3.44892,5.9688 0.73547,1.81 25.46867,42.669 54.96269,90.7977 l 53.62549,87.5069 36.58323,101.4931 c 20.12077,55.8213 51.44104,145.1432 69.60054,198.4932 54.3747,159.7444 74.4661,217.6739 84.6253,244 8.5417,22.1347 10.618,28.8752 18.1157,58.8116 4.6576,18.5964 8.2475,34.1689 7.9776,34.6056 -0.2699,0.4367 2.4645,8.1714 6.0763,17.1884 9.2627,23.1241 9.2471,23.0892 10.1015,22.5684 0.4241,-0.2585 15.3909,-6.6232 33.2596,-14.1439 z m -81.7925,-23.9042 20.5044,-7.8741 -7.3754,-29.4509 c -6.3865,-25.5017 -8.7292,-32.961 -17.4704,-55.626 -10.5759,-27.4221 -29.1375,-80.9211 -84.02294,-242.1749 -18.15858,-53.35 -49.38191,-142.4772 -69.38518,-198.0605 l -36.36958,-101.0606 -52.67206,-85.9394 c -28.96963,-47.2667 -53.23631,-86.5478 -53.92597,-87.2913 -1.04001,-1.1211 -3.83187,0.043 -16.36644,6.8237 -8.31189,4.4965 -15.11253,8.4119 -15.11253,8.701 0,0.2891 22.96134,38.0429 51.0252,83.8975 l 51.0252,83.372 2.02341,24.2788 2.02341,24.2788 22.61432,69 22.61433,69 28.27441,65.6546 28.27441,65.6545 23.61052,80.8455 c 23.47089,80.3674 23.77059,81.2918 50.69249,156.3454 14.8951,41.525 27.304,76.0815 27.5753,76.7923 0.2714,0.7107 0.8186,1.1607 1.2161,1 0.3974,-0.1608 9.9496,-3.8356 21.227,-8.1664 z m -398.1961,-769.4165 c 10.725,-5.7703 19.6276,-10.5931 19.78355,-10.7173 0.35891,-0.2859 -34.6498,-56.5172 -36.32791,-58.3502 -1.03061,-1.1258 -4.71083,0.5849 -21.51269,10 -11.14816,6.2469 -20.23262,11.8081 -20.18769,12.3581 0.0449,0.55 7.85974,14.1294 17.36625,30.1765 16.06774,27.1225 17.42867,29.1008 19.33153,28.1005 1.12583,-0.5918 10.82196,-5.7973 21.54696,-11.5676 z m 59.29845,-31.8627 c 16.06085,-8.6093 29.7657,-16.1645 30.45521,-16.7894 0.98372,-0.8914 -0.68497,-4.312 -7.75,-15.8864 -8.12372,-13.3088 -10.48277,-18.6709 -8.21424,-18.6709 0.43418,0 0.77168,-1.0748 0.75,-2.3884 -0.0338,-2.0478 5.09468,-5.7687 35.96058,-26.0908 19.8,-13.03631 36.62427,-24.30188 37.38727,-25.03458 1.17465,-1.12801 0.029,-3.64308 -7.47432,-16.40921 -4.87388,-8.29235 -9.214,-15.07701 -9.64472,-15.07701 -0.43072,0 -17.69421,10.575 -38.36332,23.5 -20.66911,12.925 -38.19072,23.5 -38.9369,23.5 -1.87669,0 -6.78694,-4.872 -15.88496,-15.76119 -4.25579,-5.09366 -8.04049,-9.09549 -8.41043,-8.89295 -0.36994,0.20253 -8.87839,4.97473 -18.90767,10.60487 -16.64271,9.34275 -18.14327,10.40812 -17.18403,12.20047 0.57805,1.0801 4.84632,8.2613 9.48504,15.9583 4.63872,7.6969 8.43404,14.8407 8.43404,15.8751 0,1.0343 -0.85378,2.1516 -1.89728,2.4828 -1.1619,0.3688 -1.73402,1.267 -1.47606,2.3174 0.3146,1.281 -1.60086,2.8295 -7.56725,6.1174 -5.24712,2.8915 -7.74327,4.8119 -7.27394,5.5961 5.07926,8.4869 36.6552,58.5017 36.93405,58.5017 0.20756,0 13.51807,-7.044 29.57893,-15.6533 z m -91.29845,-42.836 c 14.575,-8.1058 27.49763,-15.3624 28.71696,-16.1257 2.21243,-1.385 2.20139,-1.4139 -5.39883,-14.1364 -4.18869,-7.0117 -7.96058,-13.1379 -8.38199,-13.6136 -0.99835,-1.1272 -63.1144,34.3247 -62.72953,35.802 0.16136,0.6194 3.65357,6.8258 7.76047,13.792 l 7.46707,12.6658 3.03293,-1.8231 c 1.6681,-1.0027 14.95792,-8.4551 29.53292,-16.561 z m -57.34756,-17.7607 c -0.76652,-1.2375 -18.31215,-29.5646 -38.99029,-62.94907 -25.93882,-41.87775 -50.33901,-83.07938 -78.69102,-132.87592 -38.17554,-67.05026 -43.70882,-77.40621 -77.90285,-145.80092 l -36.80846,-73.62409 -33.02339,-81 c -18.16286,-44.55 -45.72094,-113.175 -61.24017,-152.5 -27.34799,-69.2985 -28.78271,-73.28583 -46.59667,-129.5 -10.10894,-31.9 -18.38432,-58.54344 -18.38974,-59.20765 -0.005,-0.66422 3.02765,-2.09754 6.74015,-3.18517 10.65923,-3.12276 76.53106,-22.11564 78.75,-22.70604 1.62425,-0.43218 1.71819,-0.33485 0.5,0.51804 -1.26348,0.8846 -1.18464,1.05502 0.5,1.08082 1.23732,0.0189 1.56058,0.31079 0.8477,0.76531 -0.79921,0.50957 2.96258,10.99975 12.27658,34.23469 9.54596,23.81358 16.41937,43.04185 23.77137,66.5 6.02424,19.22165 15.36943,45.9433 22.38231,64 6.62189,17.05 15.18257,40 19.02372,51 3.84116,11 12.47665,33.725 19.18998,50.5 6.71333,16.775 17.52551,44.675 24.02707,62 10.24162,27.29131 15.68648,39.65016 40.75212,92.5 15.91211,33.55 34.25703,72.475 40.76649,86.5 6.50946,14.025 26.30659,52.5 43.99364,85.5 31.12572,58.07352 59.40372,106.7602 94.96342,163.5 10.65609,17.00308 14.6096,24.48938 23.17663,43.88692 5.68093,12.8628 10.32397,23.8878 10.31785,24.5 -0.0133,1.33017 -65.03559,38.61308 -67.34216,38.61308 -0.88034,0 -2.22776,-1.0125 -2.99428,-2.25 z m 35.6877,-18.8001 c 29.44196,-16.83209 31.515,-18.19846 30.72317,-20.24996 -0.46702,-1.20997 -4.95154,-11.51441 -9.96559,-22.89877 -7.20645,-16.36216 -11.65891,-24.74266 -21.25151,-40 -6.67428,-10.61564 -24.02817,-39.06911 -38.5642,-63.22993 -32.42,-53.88635 -82.15106,-146.07756 -103.1309,-191.18361 -7.64577,-16.4382 -26.10347,-55.6308 -41.01711,-87.09468 -23.34915,-49.26059 -28.77013,-61.62331 -39.026,-89 -6.55066,-17.48612 -17.39963,-45.51795 -24.10881,-62.29295 -6.70919,-16.775 -15.27697,-39.29849 -19.0395,-50.05221 -3.76254,-10.75372 -12.30352,-33.66671 -18.97995,-50.91776 -6.93945,-17.93065 -16.43398,-45.10744 -22.16622,-63.44779 -6.9818,-22.33834 -14.14298,-42.4086 -23.57851,-66.08224 -7.45321,-18.7 -13.6561,-34.13848 -13.78422,-34.30774 -0.27566,-0.36418 -79.39238,22.41599 -80.01528,23.0389 -0.23461,0.23461 7.84464,26.49108 17.9539,58.3477 17.95696,56.58655 19.05936,59.63773 47.84407,132.42114 16.20498,40.975 43.31667,108.475 60.2482,150 l 30.7846,75.5 38.77816,77.57007 c 36.38596,72.78485 41.25429,81.91403 78.91705,147.987 27.01612,47.39523 52.62772,90.5955 78.3387,132.13753 21.0099,33.9463 38.48507,61.7397 38.83373,61.763 0.34866,0.023 14.84145,-8.0801 32.20622,-18.0077 z m 99.76047,-27.93841 c -3.51966,-4.34109 -7.76927,-9.38207 -9.44357,-11.20219 -1.6743,-1.82011 -29.36298,-44.2593 -61.53039,-94.3093 l -58.48621,-91 -40.71028,-78.29341 -40.71028,-78.29341 -40.07776,-91.20659 -40.07776,-91.20659 -28.63087,-79 c -30.57893,-84.37519 -75.01469,-214.33264 -73.7174,-215.59495 1.2801,-1.24557 87.62002,-25.99236 89.61727,-25.68614 2.99137,0.45863 54.01857,117.31701 84.83449,194.28109 14.31407,35.75 40.79842,101.45 58.85412,146 31.18202,76.93743 34.65987,84.9121 69.3419,159 49.60286,105.96186 77.98172,159.72412 124.42111,235.70927 40.09282,65.60077 48.21502,79.37373 48.21502,81.75914 0,1.39966 -9.34293,7.73292 -36.08397,24.46013 -19.84618,12.4143 -36.83368,22.54994 -37.75,22.52365 -0.91632,-0.0263 -4.54575,-3.59961 -8.06542,-7.9407 z m 43.98087,-16.76149 c 19.18383,-11.9625 34.88843,-22.14142 34.8991,-22.61983 0.0288,-1.29032 -10.59455,-19.09281 -47.51806,-79.63017 -28.37409,-46.5203 -37.34469,-62.26092 -61.26762,-107.50577 -22.89704,-43.3046 -34.62893,-67.13089 -64.10134,-130.18343 -38.93428,-83.29503 -45.92041,-99.91933 -124.10014,-295.3108 -17.94933,-44.86002 -37.973,-92.54458 -56.47915,-134.5 -15.76901,-35.75 -29.07255,-65.41437 -29.56342,-65.92082 -0.53969,-0.55682 -17.80329,3.95912 -43.67167,11.42396 -23.52855,6.78963 -42.85736,12.38218 -42.95291,12.42788 -0.87419,0.41818 51.61214,151.9747 74.10473,213.9806 l 28.62514,78.91162 39.58023,90.08838 39.58023,90.08838 40.26067,77.53409 40.26067,77.5341 58.35916,90.9659 c 46.76084,72.88731 60.32532,93.30111 68.25227,102.71591 5.44122,6.4625 10.10896,11.75 10.37277,11.75 0.2638,0 16.17551,-9.7875 35.35934,-21.75 z m -114.56913,1 c -8.12302,-18.55156 -12.16113,-26.25639 -21.88127,-41.75 -36.23267,-57.75381 -65.98063,-108.95101 -97.03481,-167 -17.65384,-33 -37.4539,-71.475 -44.00013,-85.5 -6.54623,-14.025 -24.69291,-52.5 -40.32596,-85.5 -24.46784,-51.64949 -30.06938,-64.38402 -40.24809,-91.5 -6.50341,-17.325 -17.31709,-45.225 -24.0304,-62 -6.71332,-16.775 -15.48928,-39.95 -19.50215,-51.5 -4.01287,-11.55 -12.55853,-34.5 -18.99036,-51 -6.76282,-17.34914 -15.91549,-43.49425 -21.70446,-62 -7.09635,-22.68513 -14.0683,-42.15261 -23.95117,-66.87792 -7.66751,-19.18285 -13.80543,-35.58153 -13.63981,-36.44151 0.21051,-1.09307 5.26571,-3.00907 16.79869,-6.36696 9.07366,-2.64184 17.24521,-4.80566 18.15898,-4.80848 1.21534,-0.004 2.59661,2.74694 5.14451,10.24487 1.9157,5.6375 12.48254,36.8 23.48186,69.25 10.99933,32.45 32.66097,93.875 48.13697,136.5 l 28.13819,77.5 40.44123,92 40.44123,92 39.7006,76.5 39.7006,76.5 57.89725,90.26442 c 31.84348,49.64543 57.753,90.98972 57.5767,91.8762 -0.35201,1.76999 -35.96145,22.35938 -38.67064,22.35938 -1.22726,0 -4.34426,-6.09335 -11.63756,-22.75 z m 30.0507,10 c 9.5725,-5.3625 17.22288,-10.25536 17.00085,-10.87303 -0.22202,-0.61766 -25.92177,-40.89266 -57.11055,-89.5 l -56.70687,-88.37697 -40.25835,-77.5 -40.25834,-77.5 -40.14605,-91.34263 -40.14604,-91.34263 -30.83529,-85.15737 c -16.95941,-46.83655 -39.95955,-112.23463 -51.11143,-145.32905 -11.15188,-33.09443 -20.61708,-60.72334 -21.03378,-61.39757 -0.5708,-0.92357 -4.41983,-0.17357 -15.60742,3.04118 -8.16738,2.34689 -15.21887,4.60489 -15.66999,5.01778 -0.45111,0.41289 5.24646,15.77161 12.66127,34.1305 9.96193,24.66546 16.109,41.82437 23.54604,65.72633 6.1252,19.6858 14.81248,44.54028 22.19489,63.5 6.67167,17.1344 15.40671,40.60346 19.41119,52.15346 4.00448,11.55 12.77317,34.71941 19.48598,51.48758 6.71281,16.76816 17.16916,43.76816 23.23634,60 9.1509,24.48183 15.46454,38.88755 37.03956,84.51242 14.30457,30.25 32.62631,69.175 40.71497,86.5 30.9323,66.25344 90.22852,172.9298 142.02008,255.5 11.65856,18.58699 15.31194,25.45179 23.54945,44.25 5.36255,12.2375 9.94559,22.25 10.18453,22.25 0.23894,0 8.26647,-4.3875 17.83896,-9.75 z"
       id="path3029"
       inkscape:connector-curvature="0" />
    <path
       style="color:#000000;fill:none;stroke:#000000;stroke-width:4;stroke-linecap:butt;stroke-linejoin:miter;stroke-miterlimit:4;stroke-opacity:1;stroke-dasharray:none;stroke-dashoffset:0;marker:none;visibility:visible;display:inline;overflow:visible;enable-background:accumulate;opacity:0.0781893"
       d="m 317.14286,222.85714 -88.57143,31.42857"
       id="path3825"
       inkscape:connector-curvature="0"
       transform="translate(-990.97467,-950.99835)" />
    <path
       style="color:#000000;fill:none;stroke:#000000;stroke-width:4;stroke-linecap:butt;stroke-linejoin:miter;stroke-miterlimit:4;stroke-opacity:1;stroke-dasharray:none;stroke-dashoffset:0;marker:none;visibility:visible;display:inline;overflow:visible;enable-background:accumulate;opacity:0.0781893"
       d="m 467.14286,601.42857 -82.85715,37.14286"
       id="path3827"
       inkscape:connector-curvature="0"
       transform="translate(-990.97467,-950.99835)" />
    <path
       style="color:#000000;fill:none;stroke:#000000;stroke-width:4;stroke-linecap:butt;stroke-linejoin:miter;stroke-miterlimit:4;stroke-opacity:1;stroke-dasharray:none;stroke-dashoffset:0;marker:none;visibility:visible;display:inline;overflow:visible;enable-background:accumulate;opacity:0.0781893"
       d="m 290,427.14286 88.57143,-32.85715"
       id="path3829"
       inkscape:connector-curvature="0"
       transform="translate(-990.97467,-950.99835)" />
    <path
       style="color:#000000;fill:none;stroke:#000000;stroke-width:4;stroke-linecap:butt;stroke-linejoin:miter;stroke-miterlimit:4;stroke-opacity:1;stroke-dasharray:none;stroke-dashoffset:0;marker:none;visibility:visible;display:inline;overflow:visible;enable-background:accumulate;opacity:0.0781893"
       d="m 411.42857,485.71428 -84.28571,35.71429"
       id="path3831"
       inkscape:connector-curvature="0"
       transform="translate(-990.97467,-950.99835)" />
    <path
       style="color:#000000;fill:none;stroke:#000000;stroke-width:4;stroke-linecap:butt;stroke-linejoin:miter;stroke-miterlimit:4;stroke-opacity:1;stroke-dasharray:none;stroke-dashoffset:0;marker:none;visibility:visible;display:inline;overflow:visible;enable-background:accumulate;opacity:0.0781893"
       d="m 437.14286,532.85714 -84.28572,50"
       id="path3833"
       inkscape:connector-curvature="0"
       transform="translate(-990.97467,-950.99835)" />
    <path
       style="color:#000000;fill:none;stroke:#000000;stroke-width:4;stroke-linecap:butt;stroke-linejoin:miter;stroke-miterlimit:4;stroke-opacity:1;stroke-dasharray:none;stroke-dashoffset:0;marker:none;visibility:visible;display:inline;overflow:visible;enable-background:accumulate;opacity:0.0781893"
       d="m 342.85714,300 -87.14285,31.42857"
       id="path3835"
       inkscape:connector-curvature="0"
       transform="translate(-990.97467,-950.99835)" />
    <path
       style="color:#000000;fill:none;stroke:#000000;stroke-width:4;stroke-linecap:butt;stroke-linejoin:miter;stroke-miterlimit:4;stroke-opacity:1;stroke-dasharray:none;stroke-dashoffset:0;marker:none;visibility:visible;display:inline;overflow:visible;enable-background:accumulate;opacity:0.0781893"
       d="M 360,338.57143 268.57143,370"
       id="path3837"
       inkscape:connector-curvature="0"
       transform="translate(-990.97467,-950.99835)" />
    <path
       style="color:#000000;fill:none;stroke:#000000;stroke-width:4;stroke-linecap:butt;stroke-linejoin:miter;stroke-miterlimit:4;stroke-opacity:1;stroke-dasharray:none;stroke-dashoffset:0;marker:none;visibility:visible;display:inline;overflow:visible;enable-background:accumulate;opacity:0.0781893"
       d="m 487.14286,648.57143 -82.85715,38.57143"
       id="path3839"
       inkscape:connector-curvature="0"
       transform="translate(-990.97467,-950.99835)" />
    <path
       style="color:#000000;fill:none;stroke:#000000;stroke-width:4;stroke-linecap:butt;stroke-linejoin:miter;stroke-miterlimit:4;stroke-opacity:1;stroke-dasharray:none;stroke-dashoffset:0;marker:none;visibility:visible;display:inline;overflow:visible;enable-background:accumulate;opacity:0.0781893"
       d="M 434.28571,748.57143 515.71429,710"
       id="path3841"
       inkscape:connector-curvature="0"
       transform="translate(-990.97467,-950.99835)" />
    <path
       style="color:#000000;fill:none;stroke:#000000;stroke-width:4;stroke-linecap:butt;stroke-linejoin:miter;stroke-miterlimit:4;stroke-opacity:1;stroke-dasharray:none;stroke-dashoffset:0;marker:none;visibility:visible;display:inline;overflow:visible;enable-background:accumulate;opacity:0.0781893"
       d="M 542.85714,754.28571 461.42857,800"
       id="path3843"
       inkscape:connector-curvature="0"
       transform="translate(-990.97467,-950.99835)" />
    <path
       style="color:#000000;fill:none;stroke:#000000;stroke-width:4;stroke-linecap:butt;stroke-linejoin:miter;stroke-miterlimit:4;stroke-opacity:1;stroke-dasharray:none;stroke-dashoffset:0;marker:none;visibility:visible;display:inline;overflow:visible;enable-background:accumulate;opacity:0.0781893"
       d="m 488.57143,852.85714 80,-47.14286"
       id="path3845"
       inkscape:connector-curvature="0"
       transform="translate(-990.97467,-950.99835)" />
    <path
       style="color:#000000;fill:none;stroke:#000000;stroke-width:4;stroke-linecap:butt;stroke-linejoin:miter;stroke-miterlimit:4;stroke-opacity:1;stroke-dasharray:none;stroke-dashoffset:0;marker:none;visibility:visible;display:inline;overflow:visible;enable-background:accumulate;opacity:0.0781893"
       d="M 592.85714,852.85714 520,901.42857"
       id="path3847"
       inkscape:connector-curvature="0"
       transform="translate(-990.97467,-950.99835)" />
    <path
       style="color:#000000;fill:none;stroke:#000000;stroke-width:4;stroke-linecap:butt;stroke-linejoin:miter;stroke-miterlimit:4;stroke-opacity:1;stroke-dasharray:none;stroke-dashoffset:0;marker:none;visibility:visible;display:inline;overflow:visible;enable-background:accumulate;opacity:0.0781893"
       d="m 548.57143,948.57143 75.71428,-47.14286"
       id="path3849"
       inkscape:connector-curvature="0"
       transform="translate(-990.97467,-950.99835)" />
    <path
       style="color:#000000;fill:none;stroke:#000000;stroke-width:4;stroke-linecap:butt;stroke-linejoin:miter;stroke-miterlimit:4;stroke-opacity:1;stroke-dasharray:none;stroke-dashoffset:0;marker:none;visibility:visible;display:inline;overflow:visible;enable-background:accumulate;opacity:0.0781893"
       d="m 645.71429,945.71428 -67.14286,47.14286"
       id="path3851"
       inkscape:connector-curvature="0"
       transform="translate(-990.97467,-950.99835)" />
    <path
       style="color:#000000;fill:none;stroke:#000000;stroke-width:4;stroke-linecap:butt;stroke-linejoin:miter;stroke-miterlimit:4;stroke-opacity:1;stroke-dasharray:none;stroke-dashoffset:0;marker:none;visibility:visible;display:inline;overflow:visible;enable-background:accumulate;opacity:0.0781893"
       d="m 1114.2857,1888.5714 78.5714,-32.8571"
       id="path3909"
       inkscape:connector-curvature="0"
       transform="translate(-990.97467,-950.99835)" />
    <path
       style="fill:none;stroke:#000000;stroke-width:4.50000000000000000;stroke-linecap:butt;stroke-linejoin:miter;stroke-miterlimit:4;stroke-opacity:1;stroke-dasharray:none;display:inline;opacity:0.0781893"
       d="m 307.59676,1422.5731 101.42857,-42.8572"
       id="path3031-16"
       inkscape:connector-curvature="0" />
    <path
       style="fill:none;stroke:#000000;stroke-width:4;stroke-linecap:butt;stroke-linejoin:miter;stroke-miterlimit:4;stroke-opacity:1;stroke-dasharray:none;display:inline;opacity:0.0781893"
       d="m 414.73962,1632.5731 92.85714,-45.7143"
       id="path3801-8"
       inkscape:connector-curvature="0" />
    <path
       style="color:#000000;fill:none;stroke:#000000;stroke-width:4;stroke-linecap:butt;stroke-linejoin:miter;stroke-miterlimit:4;stroke-opacity:1;stroke-dasharray:none;stroke-dashoffset:0;marker:none;visibility:visible;display:inline;overflow:visible;enable-background:accumulate;opacity:0.0781893"
       d="m 213.31105,1189.7159 108.57143,-34.2857"
       id="path3803-5"
       inkscape:connector-curvature="0" />
    <path
       style="color:#000000;fill:none;stroke:#000000;stroke-width:4;stroke-linecap:butt;stroke-linejoin:miter;stroke-miterlimit:4;stroke-opacity:1;stroke-dasharray:none;stroke-dashoffset:0;marker:none;visibility:visible;display:inline;overflow:visible;enable-background:accumulate;opacity:0.0781893"
       d="m 180.45391,1086.8588 90,-34.2857"
       id="path3805-7"
       inkscape:connector-curvature="0" />
    <path
       style="color:#000000;fill:none;stroke:#000000;stroke-width:4;stroke-linecap:butt;stroke-linejoin:miter;stroke-miterlimit:4;stroke-opacity:1;stroke-dasharray:none;stroke-dashoffset:0;marker:none;visibility:visible;display:inline;overflow:visible;enable-background:accumulate;opacity:0.0781893"
       d="m 254.73962,1306.8588 107.14286,-42.8572"
       id="path3807-6"
       inkscape:connector-curvature="0" />
    <path
       style="color:#000000;fill:none;stroke:#000000;stroke-width:4;stroke-linecap:butt;stroke-linejoin:miter;stroke-miterlimit:4;stroke-opacity:1;stroke-dasharray:none;stroke-dashoffset:0;marker:none;visibility:visible;display:inline;overflow:visible;enable-background:accumulate;opacity:0.0781893"
       d="m 357.59676,1528.2873 97.14286,-52.8571"
       id="path3809-1"
       inkscape:connector-curvature="0" />
    <path
       style="color:#000000;fill:none;stroke:#000000;stroke-width:4;stroke-linecap:butt;stroke-linejoin:miter;stroke-miterlimit:4;stroke-opacity:1;stroke-dasharray:none;stroke-dashoffset:0;marker:none;visibility:visible;display:inline;overflow:visible;enable-background:accumulate;opacity:0.0781893"
       d="m 487.59676,1741.1445 77.14286,-45.7143"
       id="path3811-89"
       inkscape:connector-curvature="0" />
    <path
       style="color:#000000;fill:none;stroke:#000000;stroke-width:4;stroke-linecap:butt;stroke-linejoin:miter;stroke-miterlimit:4;stroke-opacity:1;stroke-dasharray:none;stroke-dashoffset:0;marker:none;visibility:visible;display:inline;overflow:visible;enable-background:accumulate;opacity:0.0781893"
       d="m 449.02533,1691.1445 84.28572,-50"
       id="path3815-7"
       inkscape:connector-curvature="0" />
    <path
       style="color:#000000;fill:none;stroke:#000000;stroke-width:4;stroke-linecap:butt;stroke-linejoin:miter;stroke-miterlimit:4;stroke-opacity:1;stroke-dasharray:none;stroke-dashoffset:0;marker:none;visibility:visible;display:inline;overflow:visible;enable-background:accumulate;opacity:0.0781893"
       d="m 380.45391,1578.2873 98.57142,-48.5714"
       id="path3817-9"
       inkscape:connector-curvature="0" />
    <path
       style="color:#000000;fill:none;stroke:#000000;stroke-width:4;stroke-linecap:butt;stroke-linejoin:miter;stroke-miterlimit:4;stroke-opacity:1;stroke-dasharray:none;stroke-dashoffset:0;marker:none;visibility:visible;display:inline;overflow:visible;enable-background:accumulate;opacity:0.0781893"
       d="m 329.02533,1474.0016 100,-50"
       id="path3819-54"
       inkscape:connector-curvature="0" />
    <path
       style="color:#000000;fill:none;stroke:#000000;stroke-width:4;stroke-linecap:butt;stroke-linejoin:miter;stroke-miterlimit:4;stroke-opacity:1;stroke-dasharray:none;stroke-dashoffset:0;marker:none;visibility:visible;display:inline;overflow:visible;enable-background:accumulate;opacity:0.0781893"
       d="m 236.16819,1246.8588 104.28572,-40"
       id="path3821-3"
       inkscape:connector-curvature="0" />
    <path
       style="color:#000000;fill:none;stroke:#000000;stroke-width:4;stroke-linecap:butt;stroke-linejoin:miter;stroke-miterlimit:4;stroke-opacity:1;stroke-dasharray:none;stroke-dashoffset:0;marker:none;visibility:visible;display:inline;overflow:visible;enable-background:accumulate;opacity:0.0781893"
       d="m 194.73962,1134.0016 102.85714,-38.5714"
       id="path3823-12"
       inkscape:connector-curvature="0" />
    <path
       style="fill:none;stroke:#000000;stroke-width:4.50000000000000000;stroke-linecap:butt;stroke-linejoin:miter;stroke-miterlimit:4;stroke-opacity:1;stroke-dasharray:none;display:inline;opacity:0.0781893"
       d="m 186.24821,1505.4755 99.04659,-48.1069"
       id="path3031-16-3"
       inkscape:connector-curvature="0" />
    <path
       style="fill:none;stroke:#000000;stroke-width:4;stroke-linecap:butt;stroke-linejoin:miter;stroke-miterlimit:4;stroke-opacity:1;stroke-dasharray:none;display:inline;opacity:0.0781893"
       d="m 304.23479,1709.5802 90.33737,-50.5114"
       id="path3801-8-3"
       inkscape:connector-curvature="0" />
    <path
       style="color:#000000;fill:none;stroke:#000000;stroke-width:4;stroke-linecap:butt;stroke-linejoin:miter;stroke-miterlimit:4;stroke-opacity:1;stroke-dasharray:none;stroke-dashoffset:0;marker:none;visibility:visible;display:inline;overflow:visible;enable-background:accumulate;opacity:0.0781893"
       d="M 79.90491,1277.8719 186.53317,1237.951"
       id="path3803-5-4"
       inkscape:connector-curvature="0" />
    <path
       style="color:#000000;fill:none;stroke:#000000;stroke-width:4;stroke-linecap:butt;stroke-linejoin:miter;stroke-miterlimit:4;stroke-opacity:1;stroke-dasharray:none;stroke-dashoffset:0;marker:none;visibility:visible;display:inline;overflow:visible;enable-background:accumulate;opacity:0.0781893"
       d="m 41.709673,1176.8753 88.082287,-38.9489"
       id="path3805-7-1"
       inkscape:connector-curvature="0" />
    <path
       style="color:#000000;fill:none;stroke:#000000;stroke-width:4;stroke-linecap:butt;stroke-linejoin:miter;stroke-miterlimit:4;stroke-opacity:1;stroke-dasharray:none;stroke-dashoffset:0;marker:none;visibility:visible;display:inline;overflow:visible;enable-background:accumulate;opacity:0.0781893"
       d="m 127.40749,1392.686 104.75305,-48.4058"
       id="path3807-6-1"
       inkscape:connector-curvature="0" />
    <path
       style="color:#000000;fill:none;stroke:#000000;stroke-width:4;stroke-linecap:butt;stroke-linejoin:miter;stroke-miterlimit:4;stroke-opacity:1;stroke-dasharray:none;stroke-dashoffset:0;marker:none;visibility:visible;display:inline;overflow:visible;enable-background:accumulate;opacity:0.0781893"
       d="m 241.71234,1608.4279 94.24341,-57.8687"
       id="path3809-1-3"
       inkscape:connector-curvature="0" />
    <path
       style="color:#000000;fill:none;stroke:#000000;stroke-width:4;stroke-linecap:butt;stroke-linejoin:miter;stroke-miterlimit:4;stroke-opacity:1;stroke-dasharray:none;stroke-dashoffset:0;marker:none;visibility:visible;display:inline;overflow:visible;enable-background:accumulate;opacity:0.0781893"
       d="m 382.67427,1814.1897 74.64463,-49.689"
       id="path3811-89-8"
       inkscape:connector-curvature="0" />
    <path
       style="color:#000000;fill:none;stroke:#000000;stroke-width:4;stroke-linecap:butt;stroke-linejoin:miter;stroke-miterlimit:4;stroke-opacity:1;stroke-dasharray:none;stroke-dashoffset:0;marker:none;visibility:visible;display:inline;overflow:visible;enable-background:accumulate;opacity:0.0781893"
       d="m 341.53889,1766.2769 81.55341,-54.3426"
       id="path3815-7-4"
       inkscape:connector-curvature="0" />
    <path
       style="color:#000000;fill:none;stroke:#000000;stroke-width:4;stroke-linecap:butt;stroke-linejoin:miter;stroke-miterlimit:4;stroke-opacity:1;stroke-dasharray:none;stroke-dashoffset:0;marker:none;visibility:visible;display:inline;overflow:visible;enable-background:accumulate;opacity:0.0781893"
       d="m 267.15497,1657.1632 95.89429,-53.6637"
       id="path3817-9-2"
       inkscape:connector-curvature="0" />
    <path
       style="color:#000000;fill:none;stroke:#000000;stroke-width:4;stroke-linecap:butt;stroke-linejoin:miter;stroke-miterlimit:4;stroke-opacity:1;stroke-dasharray:none;stroke-dashoffset:0;marker:none;visibility:visible;display:inline;overflow:visible;enable-background:accumulate;opacity:0.0781893"
       d="m 210.33898,1555.712 97.24614,-55.1652"
       id="path3819-54-7"
       inkscape:connector-curvature="0" />
    <path
       style="color:#000000;fill:none;stroke:#000000;stroke-width:4;stroke-linecap:butt;stroke-linejoin:miter;stroke-miterlimit:4;stroke-opacity:1;stroke-dasharray:none;stroke-dashoffset:0;marker:none;visibility:visible;display:inline;overflow:visible;enable-background:accumulate;opacity:0.0781893"
       d="m 105.72135,1333.7402 102.04937,-45.4031"
       id="path3821-3-7"
       inkscape:connector-curvature="0" />
    <path
       style="color:#000000;fill:none;stroke:#000000;stroke-width:4;stroke-linecap:butt;stroke-linejoin:miter;stroke-miterlimit:4;stroke-opacity:1;stroke-dasharray:none;stroke-dashoffset:0;marker:none;visibility:visible;display:inline;overflow:visible;enable-background:accumulate;opacity:0.0781893"
       d="M 58.443068,1223.2058 159.14058,1179.3042"
       id="path3823-12-9"
       inkscape:connector-curvature="0" />
    <path
       style="color:#000000;fill:none;stroke:#000000;stroke-width:4;stroke-linecap:butt;stroke-linejoin:miter;stroke-miterlimit:4;stroke-opacity:1;stroke-dasharray:none;stroke-dashoffset:0;marker:none;visibility:visible;display:inline;overflow:visible;enable-background:accumulate;opacity:0.0781893"
       d="m 798.57143,1425.7143 80,-38.5714"
       id="path4086"
       inkscape:connector-curvature="0"
       transform="translate(-990.97467,-950.99835)" />
    <text
       xml:space="preserve"
       style="font-size:144px;font-style:normal;font-weight:normal;line-height:125%;letter-spacing:0px;word-spacing:0px;fill:#000000;fill-opacity:1;stroke:none;font-family:Sans;opacity:0.0781893"
       x="-325.26041"
       y="-626.71265"
       id="text4088"
       sodipodi:linespacing="125%"><tspan
         sodipodi:role="line"
         id="tspan4090"
         x="-325.26041"
         y="-626.71265">Level 0</tspan></text>
    <path
       transform="translate(-990.97467,-950.99835)"
       inkscape:connector-curvature="0"
       id="path4096"
       d="m 317.14286,222.85714 -88.57143,31.42857"
       style="color:#000000;fill:none;stroke:#000000;stroke-width:4;stroke-linecap:butt;stroke-linejoin:miter;stroke-miterlimit:4;stroke-opacity:1;stroke-dasharray:none;stroke-dashoffset:0;marker:none;visibility:visible;display:inline;overflow:visible;enable-background:accumulate;opacity:0.0781893" />
    <path
       transform="translate(-990.97467,-950.99835)"
       inkscape:connector-curvature="0"
       id="path4098"
       d="m 467.14286,601.42857 -82.85715,37.14286"
       style="color:#000000;fill:none;stroke:#000000;stroke-width:4;stroke-linecap:butt;stroke-linejoin:miter;stroke-miterlimit:4;stroke-opacity:1;stroke-dasharray:none;stroke-dashoffset:0;marker:none;visibility:visible;display:inline;overflow:visible;enable-background:accumulate;opacity:0.0781893" />
    <path
       transform="translate(-990.97467,-950.99835)"
       inkscape:connector-curvature="0"
       id="path4100"
       d="m 290,427.14286 88.57143,-32.85715"
       style="color:#000000;fill:none;stroke:#000000;stroke-width:4;stroke-linecap:butt;stroke-linejoin:miter;stroke-miterlimit:4;stroke-opacity:1;stroke-dasharray:none;stroke-dashoffset:0;marker:none;visibility:visible;display:inline;overflow:visible;enable-background:accumulate;opacity:0.0781893" />
    <path
       transform="translate(-990.97467,-950.99835)"
       inkscape:connector-curvature="0"
       id="path4102"
       d="m 411.42857,485.71428 -84.28571,35.71429"
       style="color:#000000;fill:none;stroke:#000000;stroke-width:4;stroke-linecap:butt;stroke-linejoin:miter;stroke-miterlimit:4;stroke-opacity:1;stroke-dasharray:none;stroke-dashoffset:0;marker:none;visibility:visible;display:inline;overflow:visible;enable-background:accumulate;opacity:0.0781893" />
    <path
       transform="translate(-990.97467,-950.99835)"
       inkscape:connector-curvature="0"
       id="path4104"
       d="m 437.14286,532.85714 -84.28572,50"
       style="color:#000000;fill:none;stroke:#000000;stroke-width:4;stroke-linecap:butt;stroke-linejoin:miter;stroke-miterlimit:4;stroke-opacity:1;stroke-dasharray:none;stroke-dashoffset:0;marker:none;visibility:visible;display:inline;overflow:visible;enable-background:accumulate;opacity:0.0781893" />
    <path
       transform="translate(-990.97467,-950.99835)"
       inkscape:connector-curvature="0"
       id="path4106"
       d="m 342.85714,300 -87.14285,31.42857"
       style="color:#000000;fill:none;stroke:#000000;stroke-width:4;stroke-linecap:butt;stroke-linejoin:miter;stroke-miterlimit:4;stroke-opacity:1;stroke-dasharray:none;stroke-dashoffset:0;marker:none;visibility:visible;display:inline;overflow:visible;enable-background:accumulate;opacity:0.0781893" />
    <path
       transform="translate(-990.97467,-950.99835)"
       inkscape:connector-curvature="0"
       id="path4108"
       d="M 360,338.57143 268.57143,370"
       style="color:#000000;fill:none;stroke:#000000;stroke-width:4;stroke-linecap:butt;stroke-linejoin:miter;stroke-miterlimit:4;stroke-opacity:1;stroke-dasharray:none;stroke-dashoffset:0;marker:none;visibility:visible;display:inline;overflow:visible;enable-background:accumulate;opacity:0.0781893" />
    <path
       transform="translate(-990.97467,-950.99835)"
       inkscape:connector-curvature="0"
       id="path4110"
       d="m 487.14286,648.57143 -82.85715,38.57143"
       style="color:#000000;fill:none;stroke:#000000;stroke-width:4;stroke-linecap:butt;stroke-linejoin:miter;stroke-miterlimit:4;stroke-opacity:1;stroke-dasharray:none;stroke-dashoffset:0;marker:none;visibility:visible;display:inline;overflow:visible;enable-background:accumulate;opacity:0.0781893" />
    <path
       transform="translate(-990.97467,-950.99835)"
       inkscape:connector-curvature="0"
       id="path4112"
       d="M 434.28571,748.57143 515.71429,710"
       style="color:#000000;fill:none;stroke:#000000;stroke-width:4;stroke-linecap:butt;stroke-linejoin:miter;stroke-miterlimit:4;stroke-opacity:1;stroke-dasharray:none;stroke-dashoffset:0;marker:none;visibility:visible;display:inline;overflow:visible;enable-background:accumulate;opacity:0.0781893" />
    <path
       transform="translate(-990.97467,-950.99835)"
       inkscape:connector-curvature="0"
       id="path4114"
       d="M 542.85714,754.28571 461.42857,800"
       style="color:#000000;fill:none;stroke:#000000;stroke-width:4;stroke-linecap:butt;stroke-linejoin:miter;stroke-miterlimit:4;stroke-opacity:1;stroke-dasharray:none;stroke-dashoffset:0;marker:none;visibility:visible;display:inline;overflow:visible;enable-background:accumulate;opacity:0.0781893" />
    <path
       transform="translate(-990.97467,-950.99835)"
       inkscape:connector-curvature="0"
       id="path4116"
       d="m 488.57143,852.85714 80,-47.14286"
       style="color:#000000;fill:none;stroke:#000000;stroke-width:4;stroke-linecap:butt;stroke-linejoin:miter;stroke-miterlimit:4;stroke-opacity:1;stroke-dasharray:none;stroke-dashoffset:0;marker:none;visibility:visible;display:inline;overflow:visible;enable-background:accumulate;opacity:0.0781893" />
    <path
       transform="translate(-990.97467,-950.99835)"
       inkscape:connector-curvature="0"
       id="path4118"
       d="M 592.85714,852.85714 520,901.42857"
       style="color:#000000;fill:none;stroke:#000000;stroke-width:4;stroke-linecap:butt;stroke-linejoin:miter;stroke-miterlimit:4;stroke-opacity:1;stroke-dasharray:none;stroke-dashoffset:0;marker:none;visibility:visible;display:inline;overflow:visible;enable-background:accumulate;opacity:0.0781893" />
    <path
       transform="translate(-990.97467,-950.99835)"
       inkscape:connector-curvature="0"
       id="path4120"
       d="m 548.57143,948.57143 75.71428,-47.14286"
       style="color:#000000;fill:none;stroke:#000000;stroke-width:4;stroke-linecap:butt;stroke-linejoin:miter;stroke-miterlimit:4;stroke-opacity:1;stroke-dasharray:none;stroke-dashoffset:0;marker:none;visibility:visible;display:inline;overflow:visible;enable-background:accumulate;opacity:0.0781893" />
    <path
       transform="translate(-990.97467,-950.99835)"
       inkscape:connector-curvature="0"
       id="path4122"
       d="m 645.71429,945.71428 -67.14286,47.14286"
       style="color:#000000;fill:none;stroke:#000000;stroke-width:4;stroke-linecap:butt;stroke-linejoin:miter;stroke-miterlimit:4;stroke-opacity:1;stroke-dasharray:none;stroke-dashoffset:0;marker:none;visibility:visible;display:inline;overflow:visible;enable-background:accumulate;opacity:0.0781893" />
    <path
       transform="translate(-990.97467,-950.99835)"
       inkscape:connector-curvature="0"
       id="path4124"
       d="m 1114.2857,1888.5714 78.5714,-32.8571"
       style="color:#000000;fill:none;stroke:#000000;stroke-width:4;stroke-linecap:butt;stroke-linejoin:miter;stroke-miterlimit:4;stroke-opacity:1;stroke-dasharray:none;stroke-dashoffset:0;marker:none;visibility:visible;display:inline;overflow:visible;enable-background:accumulate;opacity:0.0781893" />
    <path
       inkscape:connector-curvature="0"
       id="path4126"
       d="m 307.59676,1422.5731 101.42857,-42.8572"
       style="fill:none;stroke:#000000;stroke-width:4.50000000000000000;stroke-linecap:butt;stroke-linejoin:miter;stroke-miterlimit:4;stroke-opacity:1;stroke-dasharray:none;display:inline;opacity:0.0781893" />
    <path
       inkscape:connector-curvature="0"
       id="path4128"
       d="m 414.73962,1632.5731 92.85714,-45.7143"
       style="fill:none;stroke:#000000;stroke-width:4;stroke-linecap:butt;stroke-linejoin:miter;stroke-miterlimit:4;stroke-opacity:1;stroke-dasharray:none;display:inline;opacity:0.0781893" />
    <path
       inkscape:connector-curvature="0"
       id="path4130"
       d="m 213.31105,1189.7159 108.57143,-34.2857"
       style="color:#000000;fill:none;stroke:#000000;stroke-width:4;stroke-linecap:butt;stroke-linejoin:miter;stroke-miterlimit:4;stroke-opacity:1;stroke-dasharray:none;stroke-dashoffset:0;marker:none;visibility:visible;display:inline;overflow:visible;enable-background:accumulate;opacity:0.0781893" />
    <path
       inkscape:connector-curvature="0"
       id="path4132"
       d="m 180.45391,1086.8588 90,-34.2857"
       style="color:#000000;fill:none;stroke:#000000;stroke-width:4;stroke-linecap:butt;stroke-linejoin:miter;stroke-miterlimit:4;stroke-opacity:1;stroke-dasharray:none;stroke-dashoffset:0;marker:none;visibility:visible;display:inline;overflow:visible;enable-background:accumulate;opacity:0.0781893" />
    <path
       inkscape:connector-curvature="0"
       id="path4134"
       d="m 254.73962,1306.8588 107.14286,-42.8572"
       style="color:#000000;fill:none;stroke:#000000;stroke-width:4;stroke-linecap:butt;stroke-linejoin:miter;stroke-miterlimit:4;stroke-opacity:1;stroke-dasharray:none;stroke-dashoffset:0;marker:none;visibility:visible;display:inline;overflow:visible;enable-background:accumulate;opacity:0.0781893" />
    <path
       inkscape:connector-curvature="0"
       id="path4136"
       d="m 357.59676,1528.2873 97.14286,-52.8571"
       style="color:#000000;fill:none;stroke:#000000;stroke-width:4;stroke-linecap:butt;stroke-linejoin:miter;stroke-miterlimit:4;stroke-opacity:1;stroke-dasharray:none;stroke-dashoffset:0;marker:none;visibility:visible;display:inline;overflow:visible;enable-background:accumulate;opacity:0.0781893" />
    <path
       inkscape:connector-curvature="0"
       id="path4138"
       d="m 487.59676,1741.1445 77.14286,-45.7143"
       style="color:#000000;fill:none;stroke:#000000;stroke-width:4;stroke-linecap:butt;stroke-linejoin:miter;stroke-miterlimit:4;stroke-opacity:1;stroke-dasharray:none;stroke-dashoffset:0;marker:none;visibility:visible;display:inline;overflow:visible;enable-background:accumulate;opacity:0.0781893" />
    <path
       inkscape:connector-curvature="0"
       id="path4140"
       d="m 449.02533,1691.1445 84.28572,-50"
       style="color:#000000;fill:none;stroke:#000000;stroke-width:4;stroke-linecap:butt;stroke-linejoin:miter;stroke-miterlimit:4;stroke-opacity:1;stroke-dasharray:none;stroke-dashoffset:0;marker:none;visibility:visible;display:inline;overflow:visible;enable-background:accumulate;opacity:0.0781893" />
    <path
       inkscape:connector-curvature="0"
       id="path4142"
       d="m 380.45391,1578.2873 98.57142,-48.5714"
       style="color:#000000;fill:none;stroke:#000000;stroke-width:4;stroke-linecap:butt;stroke-linejoin:miter;stroke-miterlimit:4;stroke-opacity:1;stroke-dasharray:none;stroke-dashoffset:0;marker:none;visibility:visible;display:inline;overflow:visible;enable-background:accumulate;opacity:0.0781893" />
    <path
       inkscape:connector-curvature="0"
       id="path4144"
       d="m 329.02533,1474.0016 100,-50"
       style="color:#000000;fill:none;stroke:#000000;stroke-width:4;stroke-linecap:butt;stroke-linejoin:miter;stroke-miterlimit:4;stroke-opacity:1;stroke-dasharray:none;stroke-dashoffset:0;marker:none;visibility:visible;display:inline;overflow:visible;enable-background:accumulate;opacity:0.0781893" />
    <path
       inkscape:connector-curvature="0"
       id="path4146"
       d="m 236.16819,1246.8588 104.28572,-40"
       style="color:#000000;fill:none;stroke:#000000;stroke-width:4;stroke-linecap:butt;stroke-linejoin:miter;stroke-miterlimit:4;stroke-opacity:1;stroke-dasharray:none;stroke-dashoffset:0;marker:none;visibility:visible;display:inline;overflow:visible;enable-background:accumulate;opacity:0.0781893" />
    <path
       inkscape:connector-curvature="0"
       id="path4148"
       d="m 194.73962,1134.0016 102.85714,-38.5714"
       style="color:#000000;fill:none;stroke:#000000;stroke-width:4;stroke-linecap:butt;stroke-linejoin:miter;stroke-miterlimit:4;stroke-opacity:1;stroke-dasharray:none;stroke-dashoffset:0;marker:none;visibility:visible;display:inline;overflow:visible;enable-background:accumulate;opacity:0.0781893" />
    <path
       inkscape:connector-curvature="0"
       id="path4150"
       d="m 186.24821,1505.4755 99.04659,-48.1069"
       style="fill:none;stroke:#000000;stroke-width:4.50000000000000000;stroke-linecap:butt;stroke-linejoin:miter;stroke-miterlimit:4;stroke-opacity:1;stroke-dasharray:none;display:inline;opacity:0.0781893" />
    <path
       inkscape:connector-curvature="0"
       id="path4152"
       d="m 304.23479,1709.5802 90.33737,-50.5114"
       style="fill:none;stroke:#000000;stroke-width:4;stroke-linecap:butt;stroke-linejoin:miter;stroke-miterlimit:4;stroke-opacity:1;stroke-dasharray:none;display:inline;opacity:0.0781893" />
    <path
       inkscape:connector-curvature="0"
       id="path4154"
       d="M 79.90491,1277.8719 186.53317,1237.951"
       style="color:#000000;fill:none;stroke:#000000;stroke-width:4;stroke-linecap:butt;stroke-linejoin:miter;stroke-miterlimit:4;stroke-opacity:1;stroke-dasharray:none;stroke-dashoffset:0;marker:none;visibility:visible;display:inline;overflow:visible;enable-background:accumulate;opacity:0.0781893" />
    <path
       inkscape:connector-curvature="0"
       id="path4156"
       d="m 41.709673,1176.8753 88.082287,-38.9489"
       style="color:#000000;fill:none;stroke:#000000;stroke-width:4;stroke-linecap:butt;stroke-linejoin:miter;stroke-miterlimit:4;stroke-opacity:1;stroke-dasharray:none;stroke-dashoffset:0;marker:none;visibility:visible;display:inline;overflow:visible;enable-background:accumulate;opacity:0.0781893" />
    <path
       inkscape:connector-curvature="0"
       id="path4158"
       d="m 127.40749,1392.686 104.75305,-48.4058"
       style="color:#000000;fill:none;stroke:#000000;stroke-width:4;stroke-linecap:butt;stroke-linejoin:miter;stroke-miterlimit:4;stroke-opacity:1;stroke-dasharray:none;stroke-dashoffset:0;marker:none;visibility:visible;display:inline;overflow:visible;enable-background:accumulate;opacity:0.0781893" />
    <path
       inkscape:connector-curvature="0"
       id="path4160"
       d="m 241.71234,1608.4279 94.24341,-57.8687"
       style="color:#000000;fill:none;stroke:#000000;stroke-width:4;stroke-linecap:butt;stroke-linejoin:miter;stroke-miterlimit:4;stroke-opacity:1;stroke-dasharray:none;stroke-dashoffset:0;marker:none;visibility:visible;display:inline;overflow:visible;enable-background:accumulate;opacity:0.0781893" />
    <path
       inkscape:connector-curvature="0"
       id="path4162"
       d="m 382.67427,1814.1897 74.64463,-49.689"
       style="color:#000000;fill:none;stroke:#000000;stroke-width:4;stroke-linecap:butt;stroke-linejoin:miter;stroke-miterlimit:4;stroke-opacity:1;stroke-dasharray:none;stroke-dashoffset:0;marker:none;visibility:visible;display:inline;overflow:visible;enable-background:accumulate;opacity:0.0781893" />
    <path
       inkscape:connector-curvature="0"
       id="path4164"
       d="m 341.53889,1766.2769 81.55341,-54.3426"
       style="color:#000000;fill:none;stroke:#000000;stroke-width:4;stroke-linecap:butt;stroke-linejoin:miter;stroke-miterlimit:4;stroke-opacity:1;stroke-dasharray:none;stroke-dashoffset:0;marker:none;visibility:visible;display:inline;overflow:visible;enable-background:accumulate;opacity:0.0781893" />
    <path
       inkscape:connector-curvature="0"
       id="path4166"
       d="m 267.15497,1657.1632 95.89429,-53.6637"
       style="color:#000000;fill:none;stroke:#000000;stroke-width:4;stroke-linecap:butt;stroke-linejoin:miter;stroke-miterlimit:4;stroke-opacity:1;stroke-dasharray:none;stroke-dashoffset:0;marker:none;visibility:visible;display:inline;overflow:visible;enable-background:accumulate;opacity:0.0781893" />
    <path
       inkscape:connector-curvature="0"
       id="path4168"
       d="m 210.33898,1555.712 97.24614,-55.1652"
       style="color:#000000;fill:none;stroke:#000000;stroke-width:4;stroke-linecap:butt;stroke-linejoin:miter;stroke-miterlimit:4;stroke-opacity:1;stroke-dasharray:none;stroke-dashoffset:0;marker:none;visibility:visible;display:inline;overflow:visible;enable-background:accumulate;opacity:0.0781893" />
    <path
       inkscape:connector-curvature="0"
       id="path4170"
       d="m 105.72135,1333.7402 102.04937,-45.4031"
       style="color:#000000;fill:none;stroke:#000000;stroke-width:4;stroke-linecap:butt;stroke-linejoin:miter;stroke-miterlimit:4;stroke-opacity:1;stroke-dasharray:none;stroke-dashoffset:0;marker:none;visibility:visible;display:inline;overflow:visible;enable-background:accumulate;opacity:0.0781893" />
    <path
       inkscape:connector-curvature="0"
       id="path4172"
       d="M 58.443068,1223.2058 159.14058,1179.3042"
       style="color:#000000;fill:none;stroke:#000000;stroke-width:4;stroke-linecap:butt;stroke-linejoin:miter;stroke-miterlimit:4;stroke-opacity:1;stroke-dasharray:none;stroke-dashoffset:0;marker:none;visibility:visible;display:inline;overflow:visible;enable-background:accumulate;opacity:0.0781893" />
    <path
       transform="translate(-990.97467,-950.99835)"
       inkscape:connector-curvature="0"
       id="path4174"
       d="m 798.57143,1425.7143 80,-38.5714"
       style="color:#000000;fill:none;stroke:#000000;stroke-width:4;stroke-linecap:butt;stroke-linejoin:miter;stroke-miterlimit:4;stroke-opacity:1;stroke-dasharray:none;stroke-dashoffset:0;marker:none;visibility:visible;display:inline;overflow:visible;enable-background:accumulate;opacity:0.0781893" />
    <text
       sodipodi:linespacing="125%"
       id="text4176"
       y="-626.71265"
       x="-325.26041"
       style="font-size:144px;font-style:normal;font-weight:normal;line-height:125%;letter-spacing:0px;word-spacing:0px;fill:#000000;fill-opacity:1;stroke:none;font-family:Sans;opacity:0.0781893"
       xml:space="preserve"><tspan
         y="-626.71265"
         x="-325.26041"
         id="tspan4178"
         sodipodi:role="line">Level 0</tspan></text>
  </g>
  <g
     inkscape:groupmode="layer"
     id="layer2"
     inkscape:label="Rooms"
     style="display:inline">
    <path
       style="fill:none;stroke:#000000;stroke-width:4.50000000000000000;stroke-linecap:butt;stroke-linejoin:miter;stroke-miterlimit:4;stroke-opacity:1;stroke-dasharray:none;display:inline;opacity:0.0781893"
       d="M 502.85714,578.57143 604.28571,535.71428"
       id="path3031"
       inkscape:connector-curvature="0" />
    <path
       style="fill:none;stroke:#000000;stroke-width:4;stroke-linecap:butt;stroke-linejoin:miter;stroke-miterlimit:4;stroke-opacity:1;stroke-dasharray:none;display:inline;opacity:0.0781893"
       d="m 610,788.57143 92.85714,-45.71429"
       id="path3801"
       inkscape:connector-curvature="0" />
    <path
       style="color:#000000;fill:none;stroke:#000000;stroke-width:4;stroke-linecap:butt;stroke-linejoin:miter;stroke-miterlimit:4;stroke-opacity:1;stroke-dasharray:none;stroke-dashoffset:0;marker:none;visibility:visible;display:inline;overflow:visible;enable-background:accumulate;opacity:0.0781893"
       d="M 408.57143,345.71428 517.14286,311.42857"
       id="path3803"
       inkscape:connector-curvature="0" />
    <path
       style="color:#000000;fill:none;stroke:#000000;stroke-width:4;stroke-linecap:butt;stroke-linejoin:miter;stroke-miterlimit:4;stroke-opacity:1;stroke-dasharray:none;stroke-dashoffset:0;marker:none;visibility:visible;display:inline;overflow:visible;enable-background:accumulate;opacity:0.0781893"
       d="m 375.71429,242.85714 90,-34.28571"
       id="path3805"
       inkscape:connector-curvature="0" />
    <path
       style="color:#000000;fill:none;stroke:#000000;stroke-width:4;stroke-linecap:butt;stroke-linejoin:miter;stroke-miterlimit:4;stroke-opacity:1;stroke-dasharray:none;stroke-dashoffset:0;marker:none;visibility:visible;display:inline;overflow:visible;enable-background:accumulate;opacity:0.0781893"
       d="M 450,462.85714 557.14286,420"
       id="path3807"
       inkscape:connector-curvature="0" />
    <path
       style="color:#000000;fill:none;stroke:#000000;stroke-width:4;stroke-linecap:butt;stroke-linejoin:miter;stroke-miterlimit:4;stroke-opacity:1;stroke-dasharray:none;stroke-dashoffset:0;marker:none;visibility:visible;display:inline;overflow:visible;enable-background:accumulate;opacity:0.0781893"
       d="M 552.85714,684.28571 650,631.42857"
       id="path3809"
       inkscape:connector-curvature="0" />
    <path
       style="color:#000000;fill:none;stroke:#000000;stroke-width:4;stroke-linecap:butt;stroke-linejoin:miter;stroke-miterlimit:4;stroke-opacity:1;stroke-dasharray:none;stroke-dashoffset:0;marker:none;visibility:visible;display:inline;overflow:visible;enable-background:accumulate;opacity:0.0781893"
       d="M 682.85714,897.14286 760,851.42857"
       id="path3811"
       inkscape:connector-curvature="0" />
    <path
       style="color:#000000;fill:none;stroke:#000000;stroke-width:4;stroke-linecap:butt;stroke-linejoin:miter;stroke-miterlimit:4;stroke-opacity:1;stroke-dasharray:none;stroke-dashoffset:0;marker:none;visibility:visible;display:inline;overflow:visible;enable-background:accumulate;opacity:0.0781893"
       d="m 714.28571,950 81.42858,-48.57143"
       id="path3813"
       inkscape:connector-curvature="0" />
    <path
       style="color:#000000;fill:none;stroke:#000000;stroke-width:4;stroke-linecap:butt;stroke-linejoin:miter;stroke-miterlimit:4;stroke-opacity:1;stroke-dasharray:none;stroke-dashoffset:0;marker:none;visibility:visible;display:inline;overflow:visible;enable-background:accumulate;opacity:0.0781893"
       d="m 644.28571,847.14286 84.28572,-50"
       id="path3815"
       inkscape:connector-curvature="0" />
    <path
       style="color:#000000;fill:none;stroke:#000000;stroke-width:4;stroke-linecap:butt;stroke-linejoin:miter;stroke-miterlimit:4;stroke-opacity:1;stroke-dasharray:none;stroke-dashoffset:0;marker:none;visibility:visible;display:inline;overflow:visible;enable-background:accumulate;opacity:0.0781893"
       d="m 575.71429,734.28571 98.57142,-48.57143"
       id="path3817"
       inkscape:connector-curvature="0" />
    <path
       style="color:#000000;fill:none;stroke:#000000;stroke-width:4;stroke-linecap:butt;stroke-linejoin:miter;stroke-miterlimit:4;stroke-opacity:1;stroke-dasharray:none;stroke-dashoffset:0;marker:none;visibility:visible;display:inline;overflow:visible;enable-background:accumulate;opacity:0.0781893"
       d="m 524.28571,630 100,-50"
       id="path3819"
       inkscape:connector-curvature="0" />
    <path
       style="color:#000000;fill:none;stroke:#000000;stroke-width:4;stroke-linecap:butt;stroke-linejoin:miter;stroke-miterlimit:4;stroke-opacity:1;stroke-dasharray:none;stroke-dashoffset:0;marker:none;visibility:visible;display:inline;overflow:visible;enable-background:accumulate;opacity:0.0781893"
       d="m 431.42857,402.85714 104.28572,-40"
       id="path3821"
       inkscape:connector-curvature="0" />
    <path
       style="color:#000000;fill:none;stroke:#000000;stroke-width:4;stroke-linecap:butt;stroke-linejoin:miter;stroke-miterlimit:4;stroke-opacity:1;stroke-dasharray:none;stroke-dashoffset:0;marker:none;visibility:visible;display:inline;overflow:visible;enable-background:accumulate;opacity:0.0781893"
       d="M 390,290 492.85714,251.42857"
       id="path3823"
       inkscape:connector-curvature="0" />
  </g>
  <g
     inkscape:groupmode="layer"
     id="layer3"
     inkscape:label="Room2"
     style="display:inline">
    <path
       style="fill:none;stroke:#000000;stroke-width:4.50000000000000000;stroke-linecap:butt;stroke-linejoin:miter;stroke-miterlimit:4;stroke-opacity:1;stroke-dasharray:none;opacity:0.0781893"
       d="m 937.79727,1427.861 105.89563,-30.1767"
       id="path3031-1"
       inkscape:connector-curvature="0" />
    <path
       style="fill:none;stroke:#000000;stroke-width:4;stroke-linecap:butt;stroke-linejoin:miter;stroke-miterlimit:4;stroke-opacity:1;stroke-dasharray:none;opacity:0.0781893"
       d="m 1018.5491,1649.3532 97.736,-34.0573"
       id="path3801-7"
       inkscape:connector-curvature="0" />
    <path
       style="color:#000000;fill:none;stroke:#000000;stroke-width:4;stroke-linecap:butt;stroke-linejoin:miter;stroke-miterlimit:4;stroke-opacity:1;stroke-dasharray:none;stroke-dashoffset:0;marker:none;visibility:visible;display:inline;overflow:visible;enable-background:accumulate;opacity:0.0781893"
       d="m 849.70012,1190.3648 102.74322,-49.0621"
       id="path3803-4"
       inkscape:connector-curvature="0" />
    <path
       style="color:#000000;fill:none;stroke:#000000;stroke-width:4;stroke-linecap:butt;stroke-linejoin:miter;stroke-miterlimit:4;stroke-opacity:1;stroke-dasharray:none;stroke-dashoffset:0;marker:none;visibility:visible;display:inline;overflow:visible;enable-background:accumulate;opacity:0.0781893"
       d="m 802.84786,1093.0817 84.35245,-46.4777"
       id="path3805-0"
       inkscape:connector-curvature="0" />
    <path
       style="color:#000000;fill:none;stroke:#000000;stroke-width:4;stroke-linecap:butt;stroke-linejoin:miter;stroke-miterlimit:4;stroke-opacity:1;stroke-dasharray:none;stroke-dashoffset:0;marker:none;visibility:visible;display:inline;overflow:visible;enable-background:accumulate;opacity:0.0781893"
       d="m 907.02868,1300.6021 100.13562,-57.3517"
       id="path3807-9"
       inkscape:connector-curvature="0" />
    <path
       style="color:#000000;fill:none;stroke:#000000;stroke-width:4;stroke-linecap:butt;stroke-linejoin:miter;stroke-miterlimit:4;stroke-opacity:1;stroke-dasharray:none;stroke-dashoffset:0;marker:none;visibility:visible;display:inline;overflow:visible;enable-background:accumulate;opacity:0.0781893"
       d="m 974.54124,1538.8808 102.86046,-40.6245"
       id="path3809-4"
       inkscape:connector-curvature="0" />
    <path
       style="color:#000000;fill:none;stroke:#000000;stroke-width:4;stroke-linecap:butt;stroke-linejoin:miter;stroke-miterlimit:4;stroke-opacity:1;stroke-dasharray:none;stroke-dashoffset:0;marker:none;visibility:visible;display:inline;overflow:visible;enable-background:accumulate;opacity:0.0781893"
       d="m 1077.6316,1765.9943 82.1389,-35.9723"
       id="path3811-8"
       inkscape:connector-curvature="0" />
    <path
       style="color:#000000;fill:none;stroke:#000000;stroke-width:4;stroke-linecap:butt;stroke-linejoin:miter;stroke-miterlimit:4;stroke-opacity:1;stroke-dasharray:none;stroke-dashoffset:0;marker:none;visibility:visible;display:inline;overflow:visible;enable-background:accumulate;opacity:0.0781893"
       d="m 1102.3843,1822.2876 86.7408,-38.2858"
       id="path3813-8"
       inkscape:connector-curvature="0" />
    <path
       style="color:#000000;fill:none;stroke:#000000;stroke-width:4;stroke-linecap:butt;stroke-linejoin:miter;stroke-miterlimit:4;stroke-opacity:1;stroke-dasharray:none;stroke-dashoffset:0;marker:none;visibility:visible;display:inline;overflow:visible;enable-background:accumulate;opacity:0.0781893"
       d="m 1045.4411,1711.6663 89.751,-39.3554"
       id="path3815-2"
       inkscape:connector-curvature="0" />
    <path
       style="color:#000000;fill:none;stroke:#000000;stroke-width:4;stroke-linecap:butt;stroke-linejoin:miter;stroke-miterlimit:4;stroke-opacity:1;stroke-dasharray:none;stroke-dashoffset:0;marker:none;visibility:visible;display:inline;overflow:visible;enable-background:accumulate;opacity:0.0781893"
       d="m 991.13452,1591.2936 103.75618,-36.1965"
       id="path3817-4"
       inkscape:connector-curvature="0" />
    <path
       style="color:#000000;fill:none;stroke:#000000;stroke-width:4;stroke-linecap:butt;stroke-linejoin:miter;stroke-miterlimit:4;stroke-opacity:1;stroke-dasharray:none;stroke-dashoffset:0;marker:none;visibility:visible;display:inline;overflow:visible;enable-background:accumulate;opacity:0.0781893"
       d="m 952.79855,1481.5176 105.34815,-37.4404"
       id="path3819-5"
       inkscape:connector-curvature="0" />
    <path
       style="color:#000000;fill:none;stroke:#000000;stroke-width:4;stroke-linecap:butt;stroke-linejoin:miter;stroke-miterlimit:4;stroke-opacity:1;stroke-dasharray:none;stroke-dashoffset:0;marker:none;visibility:visible;display:inline;overflow:visible;enable-background:accumulate;opacity:0.0781893"
       d="m 880.28761,1243.7706 97.7039,-54.1245"
       id="path3821-5"
       inkscape:connector-curvature="0" />
    <path
       style="color:#000000;fill:none;stroke:#000000;stroke-width:4;stroke-linecap:butt;stroke-linejoin:miter;stroke-miterlimit:4;stroke-opacity:1;stroke-dasharray:none;stroke-dashoffset:0;marker:none;visibility:visible;display:inline;overflow:visible;enable-background:accumulate;opacity:0.0781893"
       d="m 823.55553,1137.7775 96.48801,-52.5111"
       id="path3823-1"
       inkscape:connector-curvature="0" />
    <path
       style="fill:none;stroke:#000000;stroke-width:4.50000000000000000;stroke-linecap:butt;stroke-linejoin:miter;stroke-miterlimit:4;stroke-opacity:1;stroke-dasharray:none;opacity:0.0781893"
       d="m 796.09649,1494.8438 105.8956,-30.1767"
       id="path3031-1-7"
       inkscape:connector-curvature="0" />
    <path
       style="fill:none;stroke:#000000;stroke-width:4;stroke-linecap:butt;stroke-linejoin:miter;stroke-miterlimit:4;stroke-opacity:1;stroke-dasharray:none;opacity:0.0781893"
       d="m 876.84829,1716.336 97.736,-34.0573"
       id="path3801-7-1"
       inkscape:connector-curvature="0" />
    <path
       style="color:#000000;fill:none;stroke:#000000;stroke-width:4;stroke-linecap:butt;stroke-linejoin:miter;stroke-miterlimit:4;stroke-opacity:1;stroke-dasharray:none;stroke-dashoffset:0;marker:none;visibility:visible;display:inline;overflow:visible;enable-background:accumulate;opacity:0.0781893"
       d="m 707.99939,1257.3476 102.7432,-49.0621"
       id="path3803-4-1"
       inkscape:connector-curvature="0" />
    <path
       style="color:#000000;fill:none;stroke:#000000;stroke-width:4;stroke-linecap:butt;stroke-linejoin:miter;stroke-miterlimit:4;stroke-opacity:1;stroke-dasharray:none;stroke-dashoffset:0;marker:none;visibility:visible;display:inline;overflow:visible;enable-background:accumulate;opacity:0.0781893"
       d="m 765.32789,1367.5849 100.1356,-57.3517"
       id="path3807-9-2"
       inkscape:connector-curvature="0" />
    <path
       style="color:#000000;fill:none;stroke:#000000;stroke-width:4;stroke-linecap:butt;stroke-linejoin:miter;stroke-miterlimit:4;stroke-opacity:1;stroke-dasharray:none;stroke-dashoffset:0;marker:none;visibility:visible;display:inline;overflow:visible;enable-background:accumulate;opacity:0.0781893"
       d="m 832.84049,1605.8636 102.8604,-40.6245"
       id="path3809-4-7"
       inkscape:connector-curvature="0" />
    <path
       style="color:#000000;fill:none;stroke:#000000;stroke-width:4;stroke-linecap:butt;stroke-linejoin:miter;stroke-miterlimit:4;stroke-opacity:1;stroke-dasharray:none;stroke-dashoffset:0;marker:none;visibility:visible;display:inline;overflow:visible;enable-background:accumulate;opacity:0.0781893"
       d="m 935.93079,1832.9771 82.13891,-35.9723"
       id="path3811-8-6"
       inkscape:connector-curvature="0" />
    <path
       style="color:#000000;fill:none;stroke:#000000;stroke-width:4;stroke-linecap:butt;stroke-linejoin:miter;stroke-miterlimit:4;stroke-opacity:1;stroke-dasharray:none;stroke-dashoffset:0;marker:none;visibility:visible;display:inline;overflow:visible;enable-background:accumulate;opacity:0.0781893"
       d="m 960.68349,1889.2704 86.74081,-38.2858"
       id="path3813-8-1"
       inkscape:connector-curvature="0" />
    <path
       style="color:#000000;fill:none;stroke:#000000;stroke-width:4;stroke-linecap:butt;stroke-linejoin:miter;stroke-miterlimit:4;stroke-opacity:1;stroke-dasharray:none;stroke-dashoffset:0;marker:none;visibility:visible;display:inline;overflow:visible;enable-background:accumulate;opacity:0.0781893"
       d="m 903.74029,1778.6491 89.751,-39.3554"
       id="path3815-2-4"
       inkscape:connector-curvature="0" />
    <path
       style="color:#000000;fill:none;stroke:#000000;stroke-width:4;stroke-linecap:butt;stroke-linejoin:miter;stroke-miterlimit:4;stroke-opacity:1;stroke-dasharray:none;stroke-dashoffset:0;marker:none;visibility:visible;display:inline;overflow:visible;enable-background:accumulate;opacity:0.0781893"
       d="m 849.43379,1658.2764 103.7561,-36.1965"
       id="path3817-4-2"
       inkscape:connector-curvature="0" />
    <path
       style="color:#000000;fill:none;stroke:#000000;stroke-width:4;stroke-linecap:butt;stroke-linejoin:miter;stroke-miterlimit:4;stroke-opacity:1;stroke-dasharray:none;stroke-dashoffset:0;marker:none;visibility:visible;display:inline;overflow:visible;enable-background:accumulate;opacity:0.0781893"
       d="M 811.09779,1548.5004 916.44589,1511.06"
       id="path3819-5-3"
       inkscape:connector-curvature="0" />
    <path
       style="color:#000000;fill:none;stroke:#000000;stroke-width:4;stroke-linecap:butt;stroke-linejoin:miter;stroke-miterlimit:4;stroke-opacity:1;stroke-dasharray:none;stroke-dashoffset:0;marker:none;visibility:visible;display:inline;overflow:visible;enable-background:accumulate;opacity:0.0781893"
       d="m 738.58689,1310.7534 97.7039,-54.1245"
       id="path3821-5-2"
       inkscape:connector-curvature="0" />
    <path
       style="color:#000000;fill:none;stroke:#000000;stroke-width:4;stroke-linecap:butt;stroke-linejoin:miter;stroke-miterlimit:4;stroke-opacity:1;stroke-dasharray:none;stroke-dashoffset:0;marker:none;visibility:visible;display:inline;overflow:visible;enable-background:accumulate;opacity:0.0781893"
       d="m 681.85479,1204.7603 96.488,-52.5111"
       id="path3823-1-2"
       inkscape:connector-curvature="0" />
  </g>
</svg>
